<?xml version="1.0" encoding="UTF-8" standalone="no"?>
<!-- Created with Inkscape (http://www.inkscape.org/) -->

<svg
   xmlns:dc="http://purl.org/dc/elements/1.1/"
   xmlns:cc="http://creativecommons.org/ns#"
   xmlns:rdf="http://www.w3.org/1999/02/22-rdf-syntax-ns#"
   xmlns:svg="http://www.w3.org/2000/svg"
   xmlns="http://www.w3.org/2000/svg"
   xmlns:sodipodi="http://sodipodi.sourceforge.net/DTD/sodipodi-0.dtd"
   xmlns:inkscape="http://www.inkscape.org/namespaces/inkscape"
   id="svg2"
   version="1.1"
   inkscape:version="0.91 r13725"
   width="625"
   height="625"
   viewBox="0 0 624.99997 625"
   sodipodi:docname="lamyne_logo.svg">
  <metadata
     id="metadata8">
    <rdf:RDF>
      <cc:Work
         rdf:about="">
        <dc:format>image/svg+xml</dc:format>
        <dc:type
           rdf:resource="http://purl.org/dc/dcmitype/StillImage" />
        <dc:title></dc:title>
      </cc:Work>
    </rdf:RDF>
  </metadata>
  <defs
     id="defs6" />
  <sodipodi:namedview
     pagecolor="#ffffff"
     bordercolor="#666666"
     borderopacity="1"
     objecttolerance="10"
     gridtolerance="10"
     guidetolerance="10"
     inkscape:pageopacity="0"
     inkscape:pageshadow="2"
     inkscape:window-width="1377"
     inkscape:window-height="836"
     id="namedview4"
     showgrid="false"
     units="px"
     inkscape:zoom="0.76095916"
     inkscape:cx="543"
     inkscape:cy="324"
     inkscape:window-x="65"
     inkscape:window-y="24"
     inkscape:window-maximized="0"
     inkscape:current-layer="svg2" />
  <g
     id="g3338"
     transform="matrix(1.4983043,0,0,1.4983043,-74.666092,-122.30564)">
    <path
       style="fill:#fdd3a6"
       d="m 333.07895,448.41667 c 0.048,-1.16495 0.28494,-1.4019 0.60416,-0.60417 0.28887,0.72187 0.25335,1.58438 -0.0789,1.91667 -0.33229,0.33229 -0.56864,-0.25834 -0.52522,-1.3125 z M 345,438.62244 c 0,-0.20765 0.7875,-0.99515 1.75,-1.75 1.58606,-1.24387 1.62143,-1.2085 0.37756,0.37756 C 345.82119,438.91575 345,439.44548 345,438.62244 Z M 164.87244,436.25 c -1.24387,-1.58606 -1.2085,-1.62143 0.37756,-0.37756 0.9625,0.75485 1.75,1.54235 1.75,1.75 0,0.82304 -0.82119,0.29331 -2.12756,-1.37244 z m 80.94006,-0.93311 c 0.72187,-0.28887 1.58437,-0.25335 1.91667,0.0789 0.33229,0.33229 -0.25834,0.56864 -1.3125,0.52522 -1.16495,-0.048 -1.4019,-0.28494 -0.60417,-0.60416 z m 19,0 c 0.72187,-0.28887 1.58438,-0.25335 1.91667,0.0789 0.33229,0.33229 -0.25834,0.56864 -1.3125,0.52522 -1.16495,-0.048 -1.4019,-0.28494 -0.60417,-0.60416 z M 151.40499,422.75 149.5,420.5 l 2.25,1.90499 c 2.11444,1.79022 2.70524,2.59501 1.90499,2.59501 -0.18976,0 -1.20226,-1.0125 -2.25,-2.25 z M 361,422.62244 c 0,-0.20765 0.7875,-0.99515 1.75,-1.75 1.58606,-1.24387 1.62143,-1.2085 0.37756,0.37756 C 361.82119,422.91575 361,423.44548 361,422.62244 Z m -116.1875,-9.30555 c 0.72187,-0.28887 1.58437,-0.25335 1.91667,0.0789 0.33229,0.33229 -0.25834,0.56864 -1.3125,0.52522 -1.16495,-0.048 -1.4019,-0.28494 -0.60417,-0.60416 z M 327,409.62244 c 0,-0.20765 0.7875,-0.99515 1.75,-1.75 1.58606,-1.24387 1.62143,-1.2085 0.37756,0.37756 C 327.82119,409.91575 327,410.44548 327,409.62244 Z M 181.40499,406.75 179.5,404.5 l 2.25,1.90499 c 2.11444,1.79022 2.70524,2.59501 1.90499,2.59501 -0.18976,0 -1.20226,-1.0125 -2.25,-2.25 z m -7.53255,-7.5 c -1.24387,-1.58606 -1.2085,-1.62143 0.37756,-0.37756 0.9625,0.75485 1.75,1.54235 1.75,1.75 0,0.82304 -0.82119,0.29331 -2.12756,-1.37244 z M 337,399.62244 c 0,-0.20765 0.7875,-0.99515 1.75,-1.75 1.58606,-1.24387 1.62143,-1.2085 0.37756,0.37756 C 337.82119,399.91575 337,400.44548 337,399.62244 Z M 199.87244,394.25 c -1.24387,-1.58606 -1.2085,-1.62143 0.37756,-0.37756 0.9625,0.75485 1.75,1.54235 1.75,1.75 0,0.82304 -0.82119,0.29331 -2.12756,-1.37244 z m 75.55084,-29.75 c 8.2e-4,-11.55 0.14638,-16.13804 0.32348,-10.19565 0.17711,5.94239 0.17644,15.39239 -10e-4,21 -0.17792,5.60761 -0.32282,0.74565 -0.322,-10.80435 z m -38.15092,6.5 c 0,-2.475 0.19502,-3.4875 0.43337,-2.25 0.23836,1.2375 0.23836,3.2625 0,4.5 -0.23835,1.2375 -0.43337,0.225 -0.43337,-2.25 z m -0.0774,-13.5 c 0.0204,-1.65 0.2445,-2.20394 0.49804,-1.23097 0.25354,0.97297 0.23687,2.32297 -0.0371,3 -0.27393,0.67703 -0.48137,-0.11903 -0.46099,-1.76903 z m 157.884,-13.08333 c 0.048,-1.16495 0.28494,-1.4019 0.60416,-0.60417 0.28887,0.72187 0.25335,1.58438 -0.0789,1.91667 -0.33229,0.33229 -0.56864,-0.25834 -0.52522,-1.3125 z m -278,-2 c 0.048,-1.16495 0.28494,-1.4019 0.60416,-0.60417 0.28887,0.72187 0.25335,1.58438 -0.0789,1.91667 -0.3323,0.33229 -0.56864,-0.25834 -0.52522,-1.3125 z m 29,-3 c 0.048,-1.16495 0.28494,-1.4019 0.60416,-0.60417 0.28887,0.72187 0.25335,1.58438 -0.0789,1.91667 -0.3323,0.33229 -0.56864,-0.25834 -0.52522,-1.3125 z m 84.374,-3.66667 -3.95295,-4.25 4.25,3.95295 c 3.95246,3.6762 4.70953,4.54705 3.95295,4.54705 -0.16338,0 -2.07588,-1.9125 -4.25,-4.25 z m 112.626,1.66667 c 0.048,-1.16495 0.28494,-1.4019 0.60416,-0.60417 0.28887,0.72187 0.25335,1.58438 -0.0789,1.91667 -0.33229,0.33229 -0.56864,-0.25834 -0.52522,-1.3125 z m 22,0 c 0.048,-1.16495 0.28494,-1.4019 0.60416,-0.60417 0.28887,0.72187 0.25335,1.58438 -0.0789,1.91667 -0.33229,0.33229 -0.56864,-0.25834 -0.52522,-1.3125 z M 167.30987,325.5 c 0.006,-3.3 0.1923,-4.52944 0.41486,-2.73209 0.22256,1.79735 0.21797,4.49735 -0.0102,6 -0.22818,1.50265 -0.41027,0.0321 -0.40466,-3.26791 z m 51.14308,-0.75 -3.95295,-4.25 4.25,3.95295 c 3.95246,3.6762 4.70953,4.54705 3.95295,4.54705 -0.16338,0 -2.07588,-1.9125 -4.25,-4.25 z M 294.5,324 c 2.70865,-2.75 5.14982,-5 5.42482,-5 0.275,0 -1.71617,2.25 -4.42482,5 -2.70865,2.75 -5.14982,5 -5.42482,5 -0.275,0 1.71617,-2.25 4.42482,-5 z m -149.30505,1.5 c 0.0204,-1.65 0.2445,-2.20394 0.49804,-1.23097 0.25354,0.97297 0.23687,2.32297 -0.0371,3 -0.27393,0.67703 -0.48137,-0.11903 -0.46099,-1.76903 z M 117.15789,317 c 0,-1.375 0.22698,-1.9375 0.50439,-1.25 0.27741,0.6875 0.27741,1.8125 0,2.5 -0.27741,0.6875 -0.50439,0.125 -0.50439,-1.25 z m 278,-2 c 0,-1.375 0.22698,-1.9375 0.50439,-1.25 0.27741,0.6875 0.27741,1.8125 0,2.5 -0.27741,0.6875 -0.50439,0.125 -0.50439,-1.25 z m -52.07894,-0.58333 c 0.048,-1.16495 0.28494,-1.4019 0.60416,-0.60417 0.28887,0.72187 0.25335,1.58438 -0.0789,1.91667 -0.33229,0.33229 -0.56864,-0.25834 -0.52522,-1.3125 z m 22,0 c 0.048,-1.16495 0.28494,-1.4019 0.60416,-0.60417 0.28887,0.72187 0.25335,1.58438 -0.0789,1.91667 -0.33229,0.33229 -0.56864,-0.25834 -0.52522,-1.3125 z M 200.43709,307.75 197.5,304.5 l 3.25,2.93709 c 3.02946,2.73778 3.70965,3.56291 2.93709,3.56291 -0.1721,0 -1.6346,-1.4625 -3.25,-3.25 z m -82.35814,0.66667 c 0.048,-1.16495 0.28494,-1.4019 0.60416,-0.60417 0.28887,0.72187 0.25335,1.58438 -0.0789,1.91667 -0.3323,0.33229 -0.56864,-0.25834 -0.52522,-1.3125 z M 310,309.68709 c 0,-0.1721 1.4625,-1.6346 3.25,-3.25 l 3.25,-2.93709 -2.93709,3.25 C 310.82513,309.77946 310,310.45965 310,309.68709 Z M 246,300.5 c -4.09747,-4.125 -7.22494,-7.5 -6.94994,-7.5 0.275,0 3.85247,3.375 7.94994,7.5 4.09747,4.125 7.22494,7.5 6.94994,7.5 -0.275,0 -3.85247,-3.375 -7.94994,-7.5 z m 17.5,2.5 c 2.70865,-2.75 5.14982,-5 5.42482,-5 0.275,0 -1.71617,2.25 -4.42482,5 -2.70865,2.75 -5.14982,5 -5.42482,5 -0.275,0 1.71617,-2.25 4.42482,-5 z M 202,287.62244 c 0,-0.20765 0.7875,-0.99515 1.75,-1.75 1.58606,-1.24387 1.62143,-1.2085 0.37756,0.37756 C 202.82119,287.91575 202,288.44548 202,287.62244 Z M 305.87244,285.25 c -1.24387,-1.58606 -1.2085,-1.62143 0.37756,-0.37756 1.66575,1.30637 2.19548,2.12756 1.37244,2.12756 -0.20765,0 -0.99515,-0.7875 -1.75,-1.75 z m -19.91423,-3.5 C 290.10217,277.33481 291,276.54091 291,277.29179 c 0,0.16049 -2.1375,2.29799 -4.75,4.75 L 281.5,286.5 Z m -64.0339,-4.5 -2.42431,-2.75 2.75,2.42431 c 2.57029,2.26589 3.20859,3.07569 2.42431,3.07569 -0.17912,0 -1.41662,-1.2375 -2.75,-2.75 z m 76.94813,1 c -1.24387,-1.58606 -1.2085,-1.62143 0.37756,-0.37756 0.9625,0.75485 1.75,1.54235 1.75,1.75 0,0.82304 -0.82119,0.29331 -2.12756,-1.37244 z M 211,278.62242 c 0,-0.20765 0.7875,-0.99515 1.75,-1.75 1.58606,-1.24387 1.62143,-1.2085 0.37756,0.37756 -1.30637,1.66577 -2.12756,2.1955 -2.12756,1.37246 z m 82.8125,-3.30553 c 0.72187,-0.28887 1.58438,-0.25335 1.91667,0.0789 0.33229,0.33229 -0.25834,0.56864 -1.3125,0.52522 -1.16495,-0.048 -1.4019,-0.28494 -0.60417,-0.60416 z m -77,-1 c 0.72187,-0.28887 1.58437,-0.25335 1.91667,0.0789 0.33229,0.33229 -0.25834,0.56864 -1.3125,0.52522 -1.16495,-0.048 -1.4019,-0.28494 -0.60417,-0.60416 z M 187,269.62244 c 0,-0.20765 0.7875,-0.99515 1.75,-1.75 1.58606,-1.24387 1.62143,-1.2085 0.37756,0.37756 C 187.82119,269.91575 187,270.44548 187,269.62244 Z M 317.43709,262.75 314.5,259.5 l 3.25,2.93709 c 3.02946,2.73778 3.70965,3.56291 2.93709,3.56291 -0.1721,0 -1.6346,-1.4625 -3.25,-3.25 z M 197,259.62244 c 0,-0.20765 0.7875,-0.99515 1.75,-1.75 1.58606,-1.24387 1.62143,-1.2085 0.37756,0.37756 C 197.82119,259.91575 197,260.44548 197,259.62244 Z m -25,-6 c 0,-0.20765 0.7875,-0.99515 1.75,-1.75 1.58606,-1.24387 1.62143,-1.2085 0.37756,0.37756 C 172.82119,253.91575 172,254.44548 172,253.62244 Z M 333.40499,247.75 331.5,245.5 l 2.25,1.90499 c 1.2375,1.04774 2.25,2.06024 2.25,2.25 0,0.80025 -0.80479,0.20945 -2.59501,-1.90499 z M 181,244.62244 c 0,-0.20765 0.7875,-0.99515 1.75,-1.75 1.58606,-1.24387 1.62143,-1.2085 0.37756,0.37756 C 181.82119,244.91575 181,245.44548 181,244.62244 Z M 279.45835,239.75 c -0.26338,-0.6875 -0.36154,-23.525 -0.21815,-50.75 l 0.26073,-49.5 0.49954,50.75023 c 0.27474,27.91263 0.37291,50.75013 0.21815,50.75 -0.15477,-1.3e-4 -0.49688,-0.56273 -0.76027,-1.25023 z m 80.41409,-4.5 c -1.24387,-1.58606 -1.2085,-1.62143 0.37756,-0.37756 1.66575,1.30637 2.19548,2.12756 1.37244,2.12756 -0.20765,0 -0.99515,-0.7875 -1.75,-1.75 z M 158.5,229 c 3.26557,-3.3 6.16239,-6 6.43739,-6 0.275,0 -2.17182,2.7 -5.43739,6 -3.26557,3.3 -6.16239,6 -6.43739,6 -0.275,0 2.17182,-2.7 5.43739,-6 z m 189.90499,-5.25 -1.90499,-2.25 2.25,1.90499 c 2.11444,1.79022 2.70524,2.59501 1.90499,2.59501 -0.18976,0 -1.20226,-1.0125 -2.25,-2.25 z M 301.45804,183 c 0,-23.375 0.13089,-32.9375 0.29087,-21.25 0.15998,11.6875 0.15998,30.8125 0,42.5 -0.15998,11.6875 -0.29087,2.125 -0.29087,-21.25 z m 32.20863,29.33333 C 332.74139,211.40806 332.82349,150 333.75,150 c 0.4125,0 0.75,14.175 0.75,31.5 0,17.325 -0.0375,31.5 -0.0833,31.5 -0.0458,0 -0.38334,-0.3 -0.75,-0.66667 z M 280,138.62244 c 0,-0.20765 0.7875,-0.99515 1.75,-1.75 1.58606,-1.24387 1.62143,-1.2085 0.37756,0.37756 C 280.82119,138.91575 280,139.44548 280,138.62244 Z"
       id="path3352"
       inkscape:connector-curvature="0"
       sodipodi:nodetypes="cscccssssssssccccccccccscssssssscccccssssscssssssssssssssscscccsssscsccccsccccsccccscccscssscsccccsccccsscscsssssssscscccsssssssscsccccscccscssscscccsscssssssssssssssssssssssscsscssssssssssssccccccccccssssscsssssssssssscssssssscscsscsssssssssscssssssscsssccssss" />
    <path
       style="fill:#fca25d"
       d="m 105.81858,449.25075 c 12.82521,-0.15837 33.52521,-0.1582 46,3.8e-4 12.47478,0.15859 1.98142,0.28816 -23.31858,0.28795 -25.3,-2.1e-4 -35.506641,-0.12996 -22.68142,-0.28833 z m 253.00107,-1.1e-4 c 13.92581,-0.1569 36.42581,-0.15675 50,3.3e-4 13.57419,0.15708 2.18035,0.28546 -25.31965,0.28528 -27.5,-1.8e-4 -38.60616,-0.12871 -24.68035,-0.28561 z M 251.75,435.26779 c 2.3375,-0.21053 6.1625,-0.21053 8.5,0 2.3375,0.21054 0.425,0.3828 -4.25,0.3828 -4.675,0 -6.5875,-0.17226 -4.25,-0.3828 z M 333,403.5 c 1.86578,-1.925 3.61733,-3.5 3.89233,-3.5 0.275,0 -1.02655,1.575 -2.89233,3.5 -1.86578,1.925 -3.61733,3.5 -3.89233,3.5 -0.275,0 1.02655,-1.575 2.89233,-3.5 z M 177.40499,402.75 175.5,400.5 l 2.25,1.90499 c 2.11444,1.79022 2.70524,2.59501 1.90499,2.59501 -0.18976,0 -1.20226,-1.0125 -2.25,-2.25 z m 15.54118,-14.5 -3.44617,-3.75 3.75,3.44617 c 2.0625,1.89539 3.75,3.58289 3.75,3.75 0,0.76362 -0.84622,0.0442 -4.05383,-3.44617 z m 44.33984,-8.75 c 0.008,-2.75 0.20172,-3.75631 0.43157,-2.23625 0.22986,1.52006 0.22371,3.77006 -0.0136,5 -0.23736,1.22994 -0.42542,-0.0138 -0.41792,-2.76375 z m -0.0338,-16 c 0.0111,-2.2 0.21589,-2.98225 0.45508,-1.73834 0.23919,1.24391 0.23011,3.04391 -0.0202,4 -0.25029,0.95609 -0.446,-0.0617 -0.4349,-2.26166 z M 365.15789,334 c 0,-1.375 0.22698,-1.9375 0.50439,-1.25 0.27741,0.6875 0.27741,1.8125 0,2.5 -0.27741,0.6875 -0.50439,0.125 -0.50439,-1.25 z m -198.07894,-1.58333 c 0.048,-1.16495 0.28494,-1.4019 0.60416,-0.60417 0.28887,0.72187 0.25335,1.58438 -0.0789,1.91667 -0.3323,0.33229 -0.56864,-0.25834 -0.52522,-1.3125 z M 396.232,330 c 0,-1.925 0.2058,-2.7125 0.45733,-1.75 0.25152,0.9625 0.25152,2.5375 0,3.5 -0.25153,0.9625 -0.45733,0.175 -0.45733,-1.75 z m -51.91193,-4 c 0,-3.575 0.1815,-5.0375 0.40333,-3.25 0.22182,1.7875 0.22182,4.7125 0,6.5 -0.22183,1.7875 -0.40333,0.325 -0.40333,-3.25 z m -131.44763,-6.75 c -1.24387,-1.58606 -1.2085,-1.62143 0.37756,-0.37756 1.66575,1.30637 2.19548,2.12756 1.37244,2.12756 -0.20765,0 -0.99515,-0.7875 -1.75,-1.75 z m -45.79349,-0.83333 c 0.048,-1.16495 0.28494,-1.4019 0.60416,-0.60417 0.28887,0.72187 0.25335,1.58438 -0.0789,1.91667 -0.3323,0.33229 -0.56864,-0.25834 -0.52522,-1.3125 z m 198,-1 c 0.048,-1.16495 0.28494,-1.4019 0.60416,-0.60417 0.28887,0.72187 0.25335,1.58438 -0.0789,1.91667 -0.33229,0.33229 -0.56864,-0.25834 -0.52522,-1.3125 z m -219,-3 c 0.048,-1.16495 0.28494,-1.4019 0.60416,-0.60417 0.28887,0.72187 0.25335,1.58438 -0.0789,1.91667 -0.3323,0.33229 -0.56864,-0.25834 -0.52522,-1.3125 z M 302.40499,281.75 300.5,279.5 l 2.25,1.90499 c 2.11444,1.79022 2.70524,2.59501 1.90499,2.59501 -0.18976,0 -1.20226,-1.0125 -2.25,-2.25 z m 19.46745,-14.5 c -1.24387,-1.58606 -1.2085,-1.62143 0.37756,-0.37756 1.66575,1.30637 2.19548,2.12756 1.37244,2.12756 -0.20765,0 -0.99515,-0.7875 -1.75,-1.75 z M 175,250.68709 c 0,-0.1721 1.4625,-1.6346 3.25,-3.25 l 3.25,-2.93709 -2.93709,3.25 C 175.82513,250.77946 175,251.45965 175,250.68709 Z M 234.46375,189.5 c 1.8e-4,-27.5 0.12871,-38.60616 0.28561,-24.68035 0.1569,13.92581 0.15675,36.42581 -3.3e-4,50 C 234.59195,228.39384 234.46357,217 234.46375,189.5 Z"
       id="path3350"
       inkscape:connector-curvature="0"
       sodipodi:nodetypes="sssssssssssssssssscsssscssscsccccscccsssscscccsssssssssssscsccccsccccscccscssssssssscssssss" />
    <path
       style="fill:#fdd20e"
       d="m 246.5,388.50295 c -0.55,-0.18654 -2.6875,-0.62141 -4.75,-0.96637 l -3.75,-0.62721 0,-20.55355 c 0,-16.21142 -0.31735,-21.22232 -1.50216,-23.71913 -0.82619,-1.74107 -10.30733,-11.41591 -21.06919,-21.49965 -10.76187,-10.08375 -19.81167,-18.9716 -20.11067,-19.75079 C 193.79262,297.41124 212.61779,275 217.4821,275 c 1.58876,0 7.57571,5.12901 19.84361,17 9.66261,9.35 18.28002,17 19.14979,17 0.86976,0 9.33109,-7.42171 18.80294,-16.49268 10.64941,-10.19868 17.99583,-16.49547 19.25045,-16.5 4.2673,-0.0154 21.47111,20.44452 21.47111,25.53487 0,1.40828 -6.12959,7.92513 -18.83297,20.02281 -10.35813,9.86425 -19.47063,18.835 -20.25,19.935 -1.0745,1.51655 -1.53789,7.19704 -1.91703,23.5 l -0.5,21.5 -5.5,1.15357 c -5.07592,1.06463 -20.18376,1.63495 -22.5,0.84938 z"
       id="path3348"
       inkscape:connector-curvature="0"
       sodipodi:nodetypes="sscssssssssssssscss" />
    <path
       style="fill:#fc872a"
       d="m 253.25,414.28372 c 1.5125,-0.22913 3.9875,-0.22913 5.5,0 1.5125,0.22912 0.275,0.41659 -2.75,0.41659 -3.025,0 -4.2625,-0.18747 -2.75,-0.41659 z M 320,386.62244 c 0,-0.20765 0.7875,-0.99515 1.75,-1.75 1.58606,-1.24387 1.62143,-1.2085 0.37756,0.37756 C 320.82119,386.91575 320,387.44548 320,386.62244 Z m 45.07895,-56.20577 c 0.048,-1.16495 0.28494,-1.4019 0.60416,-0.60417 0.28887,0.72187 0.25335,1.58438 -0.0789,1.91667 -0.33229,0.33229 -0.56864,-0.25834 -0.52522,-1.3125 z M 190,265.68709 c 0,-0.1721 1.4625,-1.6346 3.25,-3.25 l 3.25,-2.93709 -2.93709,3.25 C 190.82513,265.77946 190,266.45965 190,265.68709 Z M 336.40499,251.75 334.5,249.5 l 2.25,1.90499 c 2.11444,1.79022 2.70524,2.59501 1.90499,2.59501 -0.18976,0 -1.20226,-1.0125 -2.25,-2.25 z m -7.53255,-7.5 c -1.24387,-1.58606 -1.2085,-1.62143 0.37756,-0.37756 0.9625,0.75485 1.75,1.54235 1.75,1.75 0,0.82304 -0.82119,0.29331 -2.12756,-1.37244 z M 213.45804,182 c 0,-23.375 0.13089,-32.9375 0.29087,-21.25 0.15998,11.6875 0.15998,30.8125 0,42.5 -0.15998,11.6875 -0.29087,2.125 -0.29087,-21.25 z m 6.26966,-45.72173 c 1.77523,-0.22091 4.92523,-0.22454 7,-0.008 2.07476,0.21648 0.6223,0.39722 -3.2277,0.40166 -3.85,0.004 -5.54754,-0.17268 -3.7723,-0.39359 z m 67,0 c 1.77523,-0.22091 4.92523,-0.22454 7,-0.008 2.07476,0.21648 0.6223,0.39722 -3.2277,0.40166 -3.85,0.004 -5.54754,-0.17268 -3.7723,-0.39359 z"
       id="path3346"
       inkscape:connector-curvature="0"
       sodipodi:nodetypes="sssssssscscccsscssscssssssssssscccccccccc" />
    <path
       style="fill:#fe7e00"
       d="M 234,433.04131 C 194.08231,424.50375 161.84909,394.56658 150.53408,355.52086 135.94257,305.16859 159.97788,251.232 207.75,227.1251 l 6.25,-3.15389 0,-42.28561 c 0,-31.55547 0.3045,-42.5901 1.2,-43.4856 1.73511,-1.73511 16.22236,-1.60094 17.68697,0.16381 0.81683,0.98422 1.05965,15.19512 0.87244,51.05837 L 233.5,239.11674 224,242.85977 c -30.35888,11.96147 -50.86688,37.42025 -56.05618,69.58857 -1.61009,9.98086 -0.66856,26.80889 2.03534,36.37803 8.80688,31.16758 33.05049,54.94144 64.52084,63.27067 11.43189,3.02568 29.68124,3.04074 42,0.0347 31.66822,-7.72778 57.13554,-32.79531 65.66249,-64.63172 2.88387,-10.7673 3.0873,-31.72636 0.40683,-41.91554 C 337.88733,287.78702 331.06434,275.93464 318.05492,263 307.92605,252.92935 300.6208,248.05564 287.75,242.78202 l -7.75,-3.17544 0,-49.36903 c 0,-32.11898 0.3617,-50.04488 1.03518,-51.30329 C 281.93296,137.25676 283.18933,137 290.5,137 c 7.31067,0 8.56704,0.25676 9.46482,1.93426 0.66705,1.2464 1.03518,17.06623 1.03518,44.4856 l 0,42.55135 5.75,2.92377 c 29.38694,14.9427 51.21508,45.07406 57.30627,79.10502 1.68242,9.39951 1.39341,29.02857 -0.56685,38.5 -9.24994,44.6932 -43.43274,78.58311 -87.73978,86.98801 -10.97098,2.08116 -30.92894,1.86762 -41.74964,-0.4467 z"
       id="path3342"
       inkscape:connector-curvature="0" />
    <path
       style="fill:#373737"
       d="m 82,321.18711 0,-127.81289 45.14927,-20.43711 c 24.8321,-11.24041 45.5321,-20.58711 46,-20.77044 0.4679,-0.18334 0.84954,13.99166 0.84808,31.5 l -0.003,31.83333 -7.92621,6.70126 C 142.7163,241.94451 126.07854,270.34227 119.31578,302 c -2.59208,12.13402 -2.55755,43.95645 0.0607,55.97315 4.00892,18.39901 11.69334,36.37492 22.32638,52.22738 5.28372,7.87734 21.74703,25.58949 28.16313,30.29947 3.04336,2.2341 4.09273,3.70207 4.11033,5.75 L 174,449 l -46,0 -46,0 0,-127.81289 z M 334.16667,448.12604 C 334.35,447.64537 337.875,444.564 342,441.27855 c 31.64148,-25.20151 50.72432,-60.60365 53.8891,-99.97409 2.60433,-32.39842 -5.44358,-63.42178 -23.48134,-90.51661 -7.68486,-11.54356 -20.48677,-25.33872 -30.95519,-33.35688 L 334,211.72276 334,181.36138 C 334,164.66262 334.30659,151 334.68132,151 c 0.37473,0 22.64973,9.52656 49.5,21.17014 L 433,193.34028 433,321.17014 433,449 l -49.58333,0 c -27.87589,0 -49.4374,-0.38262 -49.25,-0.87396 z"
       id="path3340"
       inkscape:connector-curvature="0" />
  </g>
</svg>
