<?xml version="1.0" encoding="UTF-8" standalone="no"?>
<!-- Created with Inkscape (http://www.inkscape.org/) -->
<svg
   xmlns:dc="http://purl.org/dc/elements/1.1/"
   xmlns:cc="http://creativecommons.org/ns#"
   xmlns:rdf="http://www.w3.org/1999/02/22-rdf-syntax-ns#"
   xmlns:svg="http://www.w3.org/2000/svg"
   xmlns="http://www.w3.org/2000/svg"
   xmlns:xlink="http://www.w3.org/1999/xlink"
   xmlns:sodipodi="http://sodipodi.sourceforge.net/DTD/sodipodi-0.dtd"
   xmlns:inkscape="http://www.inkscape.org/namespaces/inkscape"
   width="431.38803"
   height="367.14813"
   id="svg2"
   sodipodi:version="0.32"
   inkscape:version="0.45+0.46pre2+devel"
   sodipodi:docname="Mairie de Lyon.svg"
   inkscape:output_extension="org.inkscape.output.svg.inkscape"
   version="1.0">
  <defs
     id="defs4">
    <linearGradient
       id="linearGradient2986">
      <stop
         style="stop-color:#ffffff;stop-opacity:0.3137255"
         offset="0"
         id="stop2988" />
      <stop
         style="stop-color:#ffffff;stop-opacity:0.25098041"
         offset="0.36766958"
         id="stop2990" />
      <stop
         style="stop-color:#6b6b6b;stop-opacity:0.1254902"
         offset="0.8029924"
         id="stop2992" />
      <stop
         style="stop-color:#000000;stop-opacity:0.1254902"
         offset="1"
         id="stop2994" />
    </linearGradient>
    <linearGradient
       id="linearGradient2976">
      <stop
         style="stop-color:#ffffff;stop-opacity:0.3137255"
         offset="0"
         id="stop2978" />
      <stop
         style="stop-color:#ffffff;stop-opacity:0.25098041"
         offset="0.55824035"
         id="stop2980" />
      <stop
         style="stop-color:#6b6b6b;stop-opacity:0.1254902"
         offset="0.85953897"
         id="stop2982" />
      <stop
         style="stop-color:#000000;stop-opacity:0.1254902"
         offset="1"
         id="stop2984" />
    </linearGradient>
    <radialGradient
       inkscape:collect="always"
       xlink:href="#linearGradient2976"
       id="radialGradient3003"
       gradientUnits="userSpaceOnUse"
       gradientTransform="matrix(6.47005,1.3831256,-1.1487602,5.3737234,-4359.5474,2521.0933)"
       cx="844.29712"
       cy="-480.2131"
       fx="844.29712"
       fy="-480.2131"
       r="300" />
    <radialGradient
       inkscape:collect="always"
       xlink:href="#linearGradient2986"
       id="radialGradient3005"
       gradientUnits="userSpaceOnUse"
       gradientTransform="matrix(1.9545454,-4.7689639,4.1911472,1.7177286,2581.836,4399.3448)"
       cx="546.60059"
       cy="-398.65189"
       fx="546.60059"
       fy="-398.65189"
       r="300" />
    <radialGradient
       inkscape:collect="always"
       xlink:href="#linearGradient2986"
       id="radialGradient3146"
       gradientUnits="userSpaceOnUse"
       gradientTransform="matrix(0.4378469,-1.068318,0.9388786,0.3847965,479.17092,1146.6558)"
       cx="546.60059"
       cy="-398.65189"
       fx="546.60059"
       fy="-398.65189"
       r="300" />
    <radialGradient
       inkscape:collect="always"
       xlink:href="#linearGradient2976"
       id="radialGradient3149"
       gradientUnits="userSpaceOnUse"
       gradientTransform="matrix(1.4493863,0.3098405,-0.2573392,1.203793,-1075.801,725.89985)"
       cx="844.29712"
       cy="-480.2131"
       fx="844.29712"
       fy="-480.2131"
       r="300" />
  </defs>
  <sodipodi:namedview
     id="base"
     pagecolor="#ffffff"
     bordercolor="#666666"
     borderopacity="1.0"
     inkscape:pageopacity="0.0"
     inkscape:pageshadow="2"
     inkscape:zoom="0.49497475"
     inkscape:cx="285.72903"
     inkscape:cy="628.83945"
     inkscape:document-units="px"
     inkscape:current-layer="layer1"
     showgrid="false" />
  <metadata
     id="metadata7">
    <rdf:RDF>
      <cc:Work
         rdf:about="">
        <dc:format>image/svg+xml</dc:format>
        <dc:type
           rdf:resource="http://purl.org/dc/dcmitype/StillImage" />
        <dc:title>Logo de la ville de Lyon</dc:title>
        <dc:description>Logo de la ville de Lyon</dc:description>
        <dc:subject>
          <rdf:Bag>
            <rdf:li>Logo ville Lyon Rhone</rdf:li>
          </rdf:Bag>
        </dc:subject>
        <dc:language>fr</dc:language>
        <dc:creator>
          <cc:Agent>
            <dc:title>Jean-Bernard FRANCOIS (infofiltrage)</dc:title>
          </cc:Agent>
        </dc:creator>
        <dc:date>2008 FEB 29</dc:date>
        <dc:publisher>
          <cc:Agent>
            <dc:title>Ville de Lyon</dc:title>
          </cc:Agent>
        </dc:publisher>
      </cc:Work>
    </rdf:RDF>
  </metadata>
  <g
     inkscape:label="Calque 1"
     inkscape:groupmode="layer"
     id="layer1"
     transform="translate(-120.05181,-102.07992)">
    <path
       id="path2418"
       d="M 322.17174,407.87801 C 325.74448,405.1522 333.90348,400.53516 337.63265,399.12896 C 339.83144,398.29983 342.49823,397.76298 344.4181,397.76298 C 346.15775,397.76298 347.5811,397.5262 347.5811,397.23682 C 347.5811,396.35037 343.98461,393.61439 340.99056,392.22317 C 337.11506,390.42238 332.14458,390.01245 326.50288,391.02834 C 321.02554,392.01463 320.10793,391.56226 322.49315,389.05161 C 324.98529,386.42842 328.30291,384.94305 332.40511,384.61376 C 334.39956,384.45367 336.03139,384.06782 336.03139,383.75632 C 336.03139,383.44482 335.05126,382.20983 333.85332,381.01189 C 330.81559,377.97415 325.82548,376.53358 315.87825,375.82273 C 301.081,374.7653 297.92378,372.58127 297.92378,363.40259 C 297.92378,357.16342 300.78844,352.55763 305.89449,350.58728 C 308.78563,349.47163 311.14278,349.40171 330.54527,349.8561 C 338.39405,350.03991 341.28888,349.88357 344.98241,349.07639 C 350.83742,347.79685 358.68963,343.94282 364.58386,339.45557 C 367.1066,337.53501 369.32952,336.16043 369.52365,336.40095 C 369.71778,336.64147 370.19375,338.09994 370.58134,339.642 C 371.80766,344.52111 377.62297,352.08564 382.90501,355.6726 C 388.06606,359.17741 398.21075,362.53636 403.63495,362.53636 L 405.32964,362.53636 L 405.32964,371.14608 L 405.32964,379.75579 L 399.41041,379.95273 C 392.28343,380.18985 389.51604,381.32861 384.25143,386.19052 C 382.34571,387.95044 378.99571,390.42964 376.80697,391.69985 C 369.58561,395.89067 364.92689,401.1872 366.64318,403.25517 C 367.21032,403.93855 367.7452,403.88972 370.17242,402.933 C 374.69458,401.15053 376.61302,401.40192 379.11372,404.1047 C 382.66749,407.94564 386.25719,407.82111 391.68348,403.66864 C 397.61664,399.12826 399.71796,397.76298 400.77283,397.76298 C 402.94288,397.76298 401.78811,399.38803 398.07486,401.55961 C 395.99043,402.77863 393.20691,404.94557 391.88928,406.37505 L 389.49358,408.97407 L 354.82206,409.19707 L 320.15054,409.42008 L 322.17174,407.87801 z M 457.90993,405.92747 C 459.64082,404.38322 462.66793,401.1941 464.63684,398.84058 L 468.21666,394.56141 L 473.29911,393.86387 C 481.90584,392.68264 491.37499,389.75728 491.37499,388.27959 C 491.37499,387.90177 490.69712,386.69755 489.86865,385.6036 C 487.52525,382.50934 486.20415,379.22911 486.1903,376.4704 C 486.18332,375.08204 486.98497,370.53434 487.97176,366.36441 C 491.50985,351.41316 489.78341,346.56335 476.85521,335.13636 C 469.87888,328.97011 468.08266,326.27931 468.0648,321.968 C 468.05569,319.76449 467.85833,319.22494 467.0614,319.22494 C 465.95174,319.22494 462.39221,321.92016 456.40665,327.29255 C 451.06897,332.08346 445.25872,335.93753 442.76337,336.34246 C 441.04068,336.62202 440.40479,336.38124 438.53864,334.74273 C 435.38821,331.9766 434.89152,330.29576 435.40378,324.13357 C 435.64139,321.27502 435.85844,316.53242 435.8861,313.59446 L 435.93637,308.25272 L 551.43349,308.25272 L 551.43349,408.7352 L 454.76286,408.7352 L 457.90993,405.92747 z M 420.20857,383.09198 C 416.79893,382.00758 412.96588,380.94406 411.69065,380.72861 L 409.37203,380.33689 L 409.37203,371.93614 L 409.37203,363.5354 L 416.44624,363.84569 C 424.24359,364.18771 431.41508,365.50865 435.26372,367.31175 C 438.30192,368.73516 440.59339,371.97549 440.96575,375.37484 C 441.50202,380.27073 436.85933,384.28021 430.06416,384.78955 C 427.01476,385.01813 425.37887,384.73636 420.20857,383.09198 z M 435.13959,301.56889 C 434.93151,299.79849 434.25729,297.3621 433.64132,296.15469 L 432.52136,293.9594 L 437.54941,291.87112 C 452.8857,285.5016 461.75801,275.78763 463.87421,263.04907 C 465.40924,253.8089 469.65047,247.2865 475.98617,244.42263 C 477.62125,243.68354 481.4278,242.66613 484.44516,242.16173 C 493.85795,240.58822 500.44055,236.29814 504.26009,229.24772 C 505.15335,227.59885 505.80302,226.24991 505.7038,226.25006 C 505.60456,226.25022 504.0941,226.80451 502.34721,227.4818 C 499.97503,228.40154 497.1198,228.82989 491.06749,229.17403 C 481.64256,229.70993 478.46988,230.37342 473.89546,232.76512 C 468.69294,235.48522 464.43272,241.09381 463.16446,246.89252 L 462.69029,249.06045 L 461.68142,246.75051 C 459.63253,242.05937 461.87134,234.27092 466.41948,230.26747 C 470.63486,226.55697 474.80169,225.53967 485.57971,225.58969 C 491.54128,225.61736 495.94825,225.33412 498.83544,224.73776 C 507.46933,222.95438 514.84795,218.49739 522.11323,210.67703 L 526.42319,206.03778 L 538.92832,206.03778 L 551.43349,206.03778 L 551.43349,304.7878 L 435.51791,304.7878 L 435.13959,301.56889 z M 422.25185,281.91842 C 420.28368,280.5824 416.58054,278.63363 414.02269,277.58781 L 409.37203,275.68634 L 409.37203,240.86206 L 409.37203,206.03778 L 426.75923,206.03778 L 444.1464,206.03778 L 443.73461,207.62586 C 442.60538,211.98102 441.74946,218.35679 441.73138,222.54811 C 441.70291,229.14877 443.3623,235.00776 447.42519,242.6519 C 451.59773,250.50238 452.68346,254.03412 452.68346,259.75651 C 452.68346,265.54855 450.60149,269.96866 445.89924,274.15971 C 441.70139,277.9012 433.64015,282.13349 427.2741,283.93824 C 426.13644,284.26076 425.07177,283.83258 422.25185,281.91842 z M 401.22514,272.82156 C 396.90302,271.04359 395.37884,269.89241 390.27781,264.55321 C 379.48632,253.2579 375.15997,240.34961 378.85536,230.47279 L 380.10039,227.14516 L 381.0458,230.04522 C 382.38613,234.1567 384.33169,237.06337 387.0757,239.05386 L 389.44879,240.7753 L 389.80513,237.95615 C 390.34544,233.68154 391.94067,230.68318 397.87995,222.77887 C 400.86561,218.80536 403.74958,214.90733 404.28876,214.11658 C 405.21674,212.75561 405.27068,214.32025 405.29936,243.42997 C 405.31602,260.34308 405.13475,274.17491 404.89653,274.16736 C 404.65832,274.15983 403.00621,273.55421 401.22514,272.82156 z M 411.68198,202.36489 C 411.68198,202.25049 412.74989,199.84671 414.05508,197.02314 C 417.28085,190.04477 420.10543,181.39961 421.20404,175.1423 C 422.97889,165.03359 422.10223,151.04193 419.23984,143.79234 C 417.33506,138.96814 417.51389,138.36959 422.68214,132.27051 C 425.23844,129.25381 427.17424,126.62992 426.98396,126.43962 C 426.79366,126.24933 424.03463,126.16643 420.85274,126.2554 L 415.06752,126.41716 L 415.7481,125.1455 C 416.1224,124.44609 416.63502,123.15433 416.88724,122.27492 L 417.34579,120.67599 L 413.35891,120.2756 L 409.37203,119.87522 L 409.37203,110.9828 L 409.37203,102.09038 L 452.95678,102.09038 L 449.80151,104.21527 C 438.38933,111.90067 431.17729,126.71914 431.16156,142.51437 C 431.15695,147.15077 431.44716,148.8916 433.03525,153.75391 C 434.06878,156.91829 435.1193,160.94625 435.36972,162.70493 C 435.98863,167.05117 435.07172,173.93346 433.0208,180.33603 C 430.9753,186.72167 430.95939,186.9823 432.61585,186.97511 C 436.98214,186.95616 445.47017,180.20714 448.40014,174.42463 C 450.25281,170.76828 450.37595,168.63788 449.76702,150.77717 C 449.47479,142.20584 450.0503,140.2988 451.8885,143.74736 C 452.65318,145.18193 452.98463,147.38985 453.15481,152.1829 C 453.28158,155.7537 453.60918,158.53691 453.88277,158.36782 C 454.65302,157.89178 457.11716,149.53208 457.55312,145.91601 C 457.81472,143.74623 457.64727,141.3985 457.04601,138.80598 C 455.93141,133.99984 455.93206,133.57341 457.05585,132.44962 C 458.29965,131.20582 458.73672,131.29119 460.86618,133.19387 C 462.65306,134.79045 462.72288,135.0266 462.95778,140.26807 C 463.09143,143.25043 463.38854,145.8929 463.61805,146.14022 C 464.3939,146.97636 467.0398,144.23828 468.66982,140.91246 C 469.93844,138.32396 470.29113,136.79045 470.29362,133.85209 C 470.29642,130.51115 469.96064,129.39161 467.23974,123.67002 C 463.90514,116.65791 463.17857,113.87816 464.18758,111.99282 C 466.40389,107.85159 476.88115,107.51186 484.45594,111.3356 C 488.72763,113.49193 493.27269,118.45323 494.57876,122.38549 C 496.19603,127.25463 495.4791,132.37235 492.27405,138.83746 C 489.08095,145.27841 484.47361,151.27354 472.58363,164.45882 C 458.17798,180.43385 451.94993,188.81013 447.57349,198.09564 L 445.46488,202.56945 L 428.57343,202.57116 C 419.28314,202.5721 411.68198,202.47927 411.68198,202.36489 z M 529.92035,199.88018 L 531.4253,197.18749 L 530.02405,197.59711 C 517.53182,201.24885 511.96642,202.00757 498.11866,201.9467 L 487.04385,201.89803 L 495.54339,200.26744 C 505.76874,198.30577 510.15175,196.9071 515.03583,194.04716 C 527.19732,186.92584 536.27719,171.44843 538.49202,154.06408 L 538.89668,150.88791 L 533.75976,155.79851 C 526.14749,163.07535 523.24715,164.34159 500.09261,170.49708 C 487.96777,173.72038 479.44401,177.59722 472.01629,183.26692 C 468.88291,185.65869 469.10242,185.10073 473.12949,180.43739 C 480.0066,172.47367 489.05397,167.68588 508.19874,161.87904 C 522.7401,157.46847 528.33406,150.23385 528.33406,135.83825 C 528.33406,130.12579 526.91586,121.14741 526.01353,121.14741 C 525.78808,121.14741 525.43979,122.34275 525.23954,123.80372 C 524.35168,130.28137 519.25853,136.35787 510.31257,141.61268 C 507.67851,143.15991 504.30761,145.28129 502.82165,146.32688 L 500.1199,148.22794 L 502.37637,143.49433 C 505.63411,136.66028 506.58843,132.34997 506.25539,125.97431 C 506.02719,121.60589 505.66285,120.01828 504.14329,116.77107 C 501.67543,111.49739 498.70545,107.70763 494.63136,104.63371 L 491.24663,102.07992 L 551.14473,102.37913 L 551.43985,202.57287 L 539.92762,202.57287 L 528.41537,202.57287 L 529.92035,199.88018 z M 401.84808,118.00499 C 398.5758,116.79892 393.7962,114.26682 389.44879,111.43616 C 387.22547,109.98852 382.9476,107.29351 379.94242,105.44724 L 374.47843,102.09038 L 389.90404,102.09038 L 405.32964,102.09038 L 405.32964,110.46392 C 405.32964,119.59469 405.45057,119.33276 401.84808,118.00499 z"
       style="fill:#eb1b2e"
       sodipodi:nodetypes="csssssssssssssssssscccccsssssssscccccccccsssssssssssccccccccccccssscccccsssssssscccssscccccccccccccccsssssccsccccccssssccssssscccccccccccssssssssssssssssssssssssccccccccccscccsssssssscccssccccccccscccccc" />
    <path
       id="path2416"
       d="M 120.05181,308.25272 L 239.7257,308.25272 L 237.58419,310.62311 C 234.98,313.50565 232.35259,318.90309 231.45954,323.20488 C 231.07905,325.03768 230.89881,329.35103 231.03566,333.3484 C 231.31209,341.42255 232.34083,344.32225 237.30428,351.01758 C 242.09542,357.48045 246.71639,361.34975 254.67449,365.56228 L 261.82451,369.34705 L 261.98219,379.51261 C 262.06893,385.10367 261.939,389.66736 261.69346,389.65412 C 260.40737,389.58481 249.45038,385.39737 243.80057,382.816 C 240.23977,381.18909 235.83237,379.46883 234.00636,378.99322 C 229.77728,377.89168 223.5901,377.90166 218.85557,379.01767 C 214.39891,380.06818 208.62137,383.03943 207.39456,384.9118 C 206.33459,386.52952 204.2698,387.66034 199.54204,389.21239 C 193.70865,391.12738 189.81977,394.27241 188.48079,398.15785 C 187.36681,401.39043 188.21993,402.05463 191.25607,400.31856 C 194.70247,398.34791 197.04313,398.49262 199.793,400.84643 C 202.47201,403.13956 205.40293,404.11532 209.61192,404.11532 C 212.29723,404.11532 213.31388,403.74341 217.34097,401.28783 C 222.12843,398.36863 229.43259,395.49656 230.17672,396.24069 C 231.49262,397.5566 226.86002,400.66234 221.93847,401.76375 C 218.30293,402.57735 215.64406,404.57231 214.47902,407.3606 L 213.66338,409.31269 L 120.05181,409.31269 L 120.05181,308.25272 z M 266.15565,381.60438 C 266.15565,376.83408 266.35942,372.9311 266.60847,372.9311 C 267.26692,372.9311 272.83965,378.7723 273.59679,380.25607 C 273.9508,380.94983 274.24043,382.52871 274.24043,383.76469 C 274.24043,386.74704 271.97387,388.88683 267.74374,389.89803 L 266.15565,390.27767 L 266.15565,381.60438 z M 335.01204,321.86359 C 328.53888,320.63082 323.42452,318.92935 311.19952,313.9415 C 305.00598,311.41453 299.41881,309.11703 298.78357,308.83596 C 298.09824,308.53272 309.3445,308.36894 326.44067,308.43319 L 355.25275,308.54146 L 356.46991,310.17189 C 358.05844,312.29975 358.14868,316.8612 356.63532,318.53343 C 353.52981,321.96497 343.58588,323.49642 335.01204,321.86359 z M 120.05181,206.03778 L 177.29014,206.03778 L 234.52849,206.03778 L 234.11131,209.9332 C 233.22674,218.19323 229.57163,224.76376 224.28795,227.59201 C 222.48609,228.5565 220.96183,228.83067 217.3581,228.83846 C 211.35169,228.85145 208.20722,227.34242 201.18852,221.07866 C 198.32996,218.52757 194.57247,215.7318 192.83853,214.86582 C 190.01187,213.45412 188.92636,213.26766 182.34008,213.06245 C 170.90368,212.70612 166.99082,213.85992 158.18144,220.18618 C 153.02774,223.88719 151.81351,225.15944 151.81351,226.85838 C 151.81351,229.36437 153.35471,229.88628 155.816,228.2138 C 158.01768,226.71772 160.63839,226.45737 163.94451,227.40629 C 165.05408,227.72475 168.6572,228.09422 171.95144,228.22733 C 175.24569,228.36044 178.22119,228.74956 178.56366,229.09202 C 178.90611,229.43448 179.06938,229.72849 178.92646,229.74536 C 178.78353,229.76223 175.67811,229.84016 172.0255,229.91854 C 164.9554,230.07024 160.61171,231.32659 158.94876,233.7008 C 158.5337,234.29338 157.25135,234.95508 156.09913,235.17124 C 154.63175,235.44653 152.98405,236.55629 150.5989,238.87577 C 147.65824,241.73546 147.19363,242.47775 147.19363,244.3161 L 147.19363,246.44492 L 150.10244,245.29837 C 154.64118,243.50937 157.31493,243.76879 161.71989,246.42553 C 167.31589,249.80064 169.53986,249.79988 173.3779,246.4215 C 176.15598,243.97615 177.22287,243.88694 177.22287,246.09999 C 177.22287,247.03601 176.28888,248.04449 173.90364,249.68396 C 170.95084,251.71356 170.44058,252.36899 169.28132,255.62134 C 168.56463,257.6321 167.0839,260.32211 165.99082,261.59913 C 163.65351,264.32975 162.20824,268.19042 162.20824,271.70338 C 162.20824,274.77107 163.21872,275.35131 165.60365,273.65309 C 167.14951,272.55234 167.58896,272.50013 170.34076,273.09028 C 174.38624,273.95788 181.60182,273.49007 184.1527,272.19481 C 185.26437,271.63034 187.65174,270.02289 189.45799,268.62271 C 198.38843,261.69993 206.03091,261.45139 210.72476,267.93106 C 213.07514,271.17567 212.99517,273.24132 210.42527,275.66503 C 209.31197,276.71502 208.63497,277.71866 208.92086,277.89535 C 209.64138,278.34066 214.63081,277.33813 217.698,276.13177 C 219.09915,275.58067 221.80475,274.16258 223.71047,272.98046 C 234.20842,266.4685 247.37968,266.44826 258.84905,272.92645 L 261.82451,274.60705 L 261.97964,287.64804 L 262.13479,300.68903 L 259.95844,301.02839 C 253.69645,302.00483 250.57762,302.69693 247.96485,303.68988 C 245.19256,304.74347 242.58458,304.78723 182.56461,304.78752 L 120.05181,304.7878 L 120.05181,206.03778 z M 284.0577,303.89628 C 280.8363,302.8869 273.884,301.52085 269.47618,301.03118 L 266.15565,300.6623 L 266.15565,289.31659 L 266.15565,277.97088 L 269.6607,281.41772 C 271.58848,283.31348 274.07936,286.09893 275.19599,287.60761 C 278.64243,292.26411 279.05007,291.28323 276.83911,283.65371 C 274.49408,275.56144 275.05481,269.29364 278.45478,265.59461 C 280.55131,263.31367 285.10225,261.48837 288.70856,261.48203 C 295.20704,261.4706 300.27098,265.51826 306.02727,275.32502 C 313.94524,288.81457 323.06379,296.03034 337.44309,300.18526 C 340.88297,301.17921 345.02601,302.60011 346.64985,303.34281 L 349.60229,304.69317 L 318.12932,304.70186 C 292.64113,304.70889 286.16223,304.55571 284.0577,303.89628 z M 120.05181,102.09038 L 209.81871,102.09038 L 208.60972,103.29938 C 207.83112,104.07799 206.29498,104.64333 204.29462,104.88747 C 199.21282,105.50768 200.11256,106.85133 207.66492,109.92058 C 209.76591,110.77442 210.22445,111.28774 211.01658,113.67261 C 212.12086,116.99731 213.68821,118.14499 218.11442,118.87 C 219.92177,119.16604 221.43768,119.40976 221.48311,119.4116 C 221.85881,119.42682 222.16176,121.3265 221.8981,122.01363 C 221.19971,123.83358 217.11856,122.30423 211.35899,118.06427 C 206.96595,114.8303 204.97441,114.39674 199.89394,115.56833 C 197.74741,116.06334 194.22581,116.75109 192.06814,117.09667 C 187.43323,117.83902 184.1527,119.26759 184.1527,120.5436 C 184.1527,121.28401 184.85619,121.45622 187.84417,121.44724 C 192.00013,121.43475 193.31499,122.22201 195.15309,125.82345 C 196.96947,129.38226 198.64674,130.09843 205.16505,130.09843 C 209.9119,130.09843 210.97902,130.26408 211.49696,131.08134 C 212.4863,132.64237 211.60688,132.88684 207.67256,132.14448 C 203.15365,131.29182 195.87308,132.14161 192.95712,133.86207 C 191.88978,134.49181 189.79699,135.30697 188.30647,135.67355 C 182.67682,137.05807 173.85927,141.89945 172.56594,144.31604 C 171.42803,146.44225 172.66265,146.80808 177.21285,145.69299 C 182.1944,144.4722 184.58442,144.78273 187.45906,147.02427 C 191.66304,150.30236 196.76546,150.85845 204.36469,148.86671 C 209.88334,147.42029 211.65328,147.43005 215.65947,148.92896 C 218.29888,149.91649 219.06577,150.51233 219.72352,152.08658 C 221.39362,156.08366 220.40087,161.46858 216.18142,171.29978 C 214.77105,174.58588 213.18449,179.39345 212.65572,181.98326 C 211.69674,186.68017 211.83569,190.02398 213.42136,200.4073 L 213.75207,202.57287 L 166.90195,202.57287 L 120.05181,202.57287 L 120.05181,102.09038 z M 217.97078,201.27352 C 219.75835,195.49221 224.32001,191.43833 227.60848,192.70863 C 229.98485,193.6266 232.57058,197.28522 233.45766,200.98478 L 233.83846,202.57287 L 225.70375,202.57287 L 217.56904,202.57287 L 217.97078,201.27352 z M 266.33184,199.63955 C 266.52581,198.8667 267.11195,194.98766 267.63435,191.01948 C 268.82261,181.99364 268.48077,156.71886 267.06426,148.86671 C 266.37682,145.05619 266.17615,139.27499 266.16719,123.02423 L 266.15565,102.09038 L 301.38225,102.09038 C 335.10276,102.09038 336.60888,102.13546 336.60888,103.14469 C 336.60888,104.49482 338.6596,106.4196 341.25219,107.50286 C 342.36807,107.96911 346.45359,108.76332 350.3311,109.26777 C 361.20672,110.68265 366.06063,112.90923 366.06063,116.48321 C 366.06063,118.45549 363.55581,121.72489 362.04479,121.72489 C 360.52037,121.72489 358.33533,119.78754 356.3232,116.65191 C 354.23852,113.4032 351.52503,111.71353 346.37377,110.4564 C 338.05886,108.42722 314.19704,108.85129 311.74336,111.07185 C 311.12662,111.62999 310.62203,112.57412 310.62203,113.16992 C 310.62203,113.76572 311.97237,117.67015 313.6228,121.84643 C 316.41203,128.90427 319.46544,134.15995 320.7574,134.12675 C 321.05885,134.119 325.16551,133.75831 329.88331,133.32521 C 338.53505,132.53098 344.80067,132.72094 348.99772,133.90474 C 351.5984,134.63827 355.08841,137.81786 355.08841,139.4537 C 355.08841,141.63701 354.05158,141.83642 350.11981,140.40926 C 344.86503,138.50188 336.95617,137.71127 330.51689,138.44965 C 327.67396,138.77564 321.10063,140.07186 315.90954,141.33013 C 304.11053,144.19009 298.37994,144.728 293.37384,143.44551 C 288.78208,142.26915 286.53015,140.68414 285.15806,137.66287 C 283.32826,133.6338 284.03859,128.08243 286.77011,125.06413 C 289.1125,122.47582 294.0949,122.65844 297.90904,125.47242 C 300.29773,127.23473 301.3446,127.28362 303.32558,125.72538 C 306.40218,123.30532 304.76907,119.97587 299.0723,117.05432 C 295.43386,115.18835 288.2698,115.11722 284.92392,116.91384 C 282.05619,118.45371 279.9699,120.66387 278.202,124.03483 C 277.02135,126.28606 276.83911,127.44426 276.83911,132.69712 C 276.83911,138.40909 276.9429,138.9449 278.62863,141.93688 C 280.78621,145.76636 284.75033,148.94212 289.19576,150.4025 C 291.69675,151.22411 294.13547,151.45777 299.93855,151.4318 C 306.84046,151.40092 308.26083,151.19283 317.55186,148.85146 C 326.97799,146.47603 328.18232,146.30347 335.4539,146.28637 C 341.57311,146.27197 343.96418,146.5024 346.5705,147.35768 C 348.3968,147.95699 349.89105,148.76257 349.89105,149.14786 C 349.89105,150.44646 346.46385,154.5924 344.58887,155.56199 C 341.25452,157.28624 330.0047,155.59804 324.50046,152.54743 C 322.42808,151.39885 321.46244,151.19338 319.59183,151.50291 C 318.31102,151.71486 316.83788,152.11129 316.31817,152.38387 C 314.81254,153.17354 309.79828,160.31384 307.43303,165.03631 C 304.97554,169.94295 300.0967,181.8453 300.41321,182.16181 C 300.52788,182.27648 302.66384,181.42677 305.15979,180.27357 C 307.65576,179.12038 311.11592,177.68897 312.84905,177.09268 C 316.52688,175.82733 320.07946,175.64001 319.72021,176.73039 C 319.4966,177.40908 316.16657,180.10826 313.73727,181.57992 C 313.04605,181.99866 313.91899,181.9381 316.10813,181.41544 C 318.01384,180.96046 321.69788,180.53228 324.29488,180.46394 C 328.31612,180.35811 329.25867,180.52029 330.64722,181.55697 C 333.061,183.35903 332.94364,186.23837 330.39574,187.72641 C 326.331,190.10036 315.9551,191.58107 303.11472,191.61961 C 294.68332,191.6449 285.90615,192.45495 281.45901,193.61822 C 277.62361,194.62147 270.50337,197.8232 267.75406,199.78088 L 265.97915,201.04473 L 266.33184,199.63955 z M 259.85651,125.99962 C 256.62024,119.74115 251.2815,112.75599 245.53727,107.26446 L 240.12508,102.09038 L 251.11916,102.09038 L 262.11324,102.09038 L 262.11324,115.95004 C 262.11324,123.57284 262.04827,129.80873 261.96886,129.80755 C 261.88947,129.80638 260.93891,128.09281 259.85651,125.99962 z"
       style="fill:#0065b2"
       sodipodi:nodetypes="cccssscccssssssssssssscccccsssccccsscccscccccsssssssssssssssscccsssssssssssssssscccccscccccccccsssssscccccccsssssssssssssssssssssssssccccccsccccccsscccssssssssssssssssssssssssssssssssssssssssssssssssscccccccccsc" />
    <path
       id="path2414"
       d="M 475.94825,468.45691 C 469.48999,466.34015 464.82497,462.35012 461.57134,456.16025 C 459.6652,452.5339 459.56082,451.97561 459.56082,445.40553 C 459.56082,438.81397 459.66043,438.28619 461.6013,434.59308 C 464.18849,429.67016 468.63773,425.36773 473.25517,423.32373 C 476.37956,421.94066 477.62504,421.72863 482.6245,421.72863 C 487.62392,421.72863 488.86941,421.94066 491.9938,423.32373 C 500.46132,427.07204 505.98182,435.67023 506.00089,445.13983 C 506.02041,454.84076 500.99557,462.95932 492.42249,467.07815 C 489.11415,468.66762 487.58965,469.03304 483.60173,469.19249 C 480.30406,469.32432 477.88551,469.09188 475.94825,468.45691 z M 487.9305,461.54449 C 492.90385,459.67184 496.37126,455.08707 497.66033,448.67915 C 498.97811,442.12871 496.68963,435.5529 491.6289,431.34803 C 485.68603,426.41025 479.00055,426.70371 472.89916,432.17021 C 466.90732,437.53856 465.35523,446.15887 469.06944,453.44072 C 469.89339,455.05609 471.3348,457.19538 472.27261,458.19471 C 475.9055,462.06591 482.69063,463.51748 487.9305,461.54449 z M 522.34525,436.51504 L 522.00587,468.21621 L 514.97769,468.21621 L 514.97769,423.96074 L 522.94344,422.74851 L 543.48695,457.80726 L 543.8258,422.59485 L 550.86955,422.59485 L 550.53418,467.25055 L 542.48901,469.16641 L 522.34525,436.51504 z M 302.92005,422.49548 L 313.33072,422.68955 C 322.99965,422.86977 323.99795,422.99203 327.34192,424.40536 C 335.52403,427.86357 339.96542,433.9315 340.55557,442.45817 C 341.18473,451.54824 338.79771,457.94686 333.0354,462.61683 C 327.84062,466.82685 324.24898,467.79291 312.69007,468.08919 L 302.92005,468.33962 L 302.92005,422.49548 z M 321.7407,460.57543 C 325.70809,459.50399 330.11082,455.35703 331.3667,451.50868 C 333.55396,444.80629 332.20081,437.60848 328.08529,434.05374 C 324.46686,430.92838 321.80974,429.94088 316.21371,429.64171 L 311.24861,429.37627 L 311.24861,461.28638 L 315.17837,461.28638 C 317.33975,461.28638 320.29282,460.96644 321.7407,460.57543 z M 349.04741,422.59485 L 372.75171,422.59485 L 372.75171,429.48913 L 357.05561,429.81342 L 357.05561,441.36314 L 372.11108,441.68852 L 372.11108,448.54505 L 357.05561,448.87044 L 357.05561,460.99765 L 372.11108,461.32303 L 372.11108,468.21621 L 349.04741,468.21621 L 349.04741,422.59485 z M 400.30001,422.59485 L 408.62853,422.59485 L 408.62853,461.28638 L 425.28563,461.28638 L 425.28563,468.21621 L 400.30001,468.21621 L 400.30001,422.59485 z M 435.53617,449.54087 L 420.80104,426.06997 L 427.64635,422.01737 L 439.64341,440.76769 L 452.309,421.90408 L 458.59984,426.16254 L 443.22406,449.5854 L 443.22406,468.21621 L 435.53617,468.21621 L 435.53617,449.54087 z"
       style="fill:#242021"
       sodipodi:nodetypes="csssssssssccsssssccccccccccccccsssccccssccccccccccccccccccccccccccccccccccc" />
    <path
       id="path2439"
       d="M 322.17174,407.87801 C 325.74448,405.1522 333.90348,400.53516 337.63265,399.12896 C 339.83144,398.29983 342.49823,397.76298 344.4181,397.76298 C 346.15775,397.76298 347.5811,397.5262 347.5811,397.23682 C 347.5811,396.35037 343.98461,393.61439 340.99056,392.22317 C 337.11506,390.42238 332.14458,390.01245 326.50288,391.02834 C 321.02554,392.01463 320.10793,391.56226 322.49315,389.05161 C 324.98529,386.42842 328.30291,384.94306 332.40511,384.61378 C 334.39956,384.45367 336.03139,384.06783 336.03139,383.75634 C 336.03139,383.44482 335.05126,382.20983 333.85332,381.0119 C 330.81559,377.97415 325.82548,376.53358 315.87825,375.82273 C 301.081,374.76529 297.92378,372.58126 297.92378,363.4026 C 297.92378,357.16341 300.78844,352.55764 305.89449,350.58728 C 308.78563,349.47162 311.14278,349.4017 330.54527,349.85609 C 338.39405,350.0399 341.28888,349.88358 344.98241,349.07639 C 350.83742,347.79684 358.68963,343.94282 364.58386,339.45557 C 367.1066,337.53501 369.32952,336.16043 369.52365,336.40095 C 369.71778,336.64147 370.19375,338.09994 370.58134,339.642 C 371.80766,344.52112 377.62297,352.08564 382.90501,355.67261 C 388.06606,359.17741 398.21075,362.53635 403.63495,362.53635 L 405.32964,362.53635 L 405.32964,371.14607 L 405.32964,379.75578 L 399.41041,379.95274 C 392.28343,380.18986 389.51604,381.32861 384.25143,386.19052 C 382.34571,387.95044 378.99571,390.42964 376.80697,391.69985 C 369.58561,395.89067 364.92689,401.1872 366.64318,403.25517 C 367.21032,403.93855 367.7452,403.88972 370.17242,402.933 C 374.69458,401.15053 376.61302,401.40192 379.11372,404.1047 C 382.66749,407.94564 386.25719,407.82111 391.68348,403.66864 C 397.61664,399.12826 399.71796,397.76298 400.77283,397.76298 C 402.94288,397.76298 401.78811,399.38803 398.07486,401.55961 C 395.99043,402.77863 393.20691,404.94557 391.88928,406.37505 L 389.49358,408.97407 L 354.82206,409.19707 L 320.15054,409.42008 L 322.17174,407.87801 z M 457.90993,405.92747 C 459.64082,404.38322 462.66793,401.1941 464.63684,398.84058 L 468.21666,394.56141 L 473.29911,393.86387 C 481.90584,392.68264 491.37499,389.75728 491.37499,388.27959 C 491.37499,387.90177 490.69712,386.69755 489.86865,385.6036 C 487.52525,382.50934 486.20415,379.2291 486.1903,376.47041 C 486.18332,375.08203 486.98497,370.53435 487.97176,366.36441 C 491.50985,351.41315 489.78341,346.56335 476.85521,335.13636 C 469.87888,328.97011 468.08266,326.27931 468.0648,321.968 C 468.05569,319.76449 467.85833,319.22494 467.0614,319.22494 C 465.95174,319.22494 462.39221,321.92016 456.40665,327.29255 C 451.06897,332.08346 445.25872,335.93753 442.76337,336.34246 C 441.04068,336.62202 440.40479,336.38124 438.53864,334.74273 C 435.38821,331.9766 434.89152,330.29576 435.40378,324.13357 C 435.64139,321.27502 435.85844,316.53242 435.8861,313.59446 L 435.93637,308.25272 L 551.43349,308.25272 L 551.43349,408.7352 L 454.76286,408.7352 L 457.90993,405.92747 z M 420.20857,383.092 C 416.79893,382.00759 412.96588,380.94407 411.69065,380.72861 L 409.37203,380.33688 L 409.37203,371.93615 L 409.37203,363.53539 L 416.44624,363.8457 C 424.24359,364.1877 431.41508,365.50865 435.26372,367.31174 C 438.30192,368.73516 440.59339,371.97548 440.96575,375.37484 C 441.50202,380.27073 436.85933,384.28022 430.06416,384.78956 C 427.01476,385.01815 425.37887,384.73636 420.20857,383.092 z M 435.13959,301.56889 C 434.93151,299.79849 434.25729,297.3621 433.64132,296.15469 L 432.52136,293.9594 L 437.54941,291.87112 C 452.8857,285.5016 461.75801,275.78763 463.87421,263.04907 C 465.40924,253.8089 469.65047,247.2865 475.98617,244.42263 C 477.62125,243.68354 481.4278,242.66613 484.44516,242.16173 C 493.85795,240.58822 500.44055,236.29814 504.26009,229.24772 C 505.15335,227.59885 505.80302,226.24991 505.7038,226.25006 C 505.60456,226.25022 504.0941,226.80451 502.34721,227.4818 C 499.97503,228.40154 497.1198,228.82989 491.06749,229.17403 C 481.64256,229.70993 478.46988,230.37342 473.89546,232.76512 C 468.69294,235.48522 464.43272,241.09381 463.16446,246.89252 L 462.69029,249.06045 L 461.68142,246.75051 C 459.63253,242.05937 461.87134,234.27092 466.41948,230.26747 C 470.63486,226.55697 474.80169,225.53967 485.57971,225.58969 C 491.54128,225.61736 495.94825,225.33412 498.83544,224.73776 C 507.46933,222.95438 514.84795,218.49739 522.11323,210.67703 L 526.42319,206.03778 L 538.92832,206.03778 L 551.43349,206.03778 L 551.43349,304.7878 L 435.51791,304.7878 L 435.13959,301.56889 z M 422.25185,281.91842 C 420.28368,280.5824 416.58054,278.63363 414.02269,277.58781 L 409.37203,275.68634 L 409.37203,240.86206 L 409.37203,206.03778 L 426.75923,206.03778 L 444.1464,206.03778 L 443.73461,207.62586 C 442.60538,211.98102 441.74946,218.35679 441.73138,222.54811 C 441.70291,229.14877 443.3623,235.00776 447.42519,242.6519 C 451.59773,250.50238 452.68346,254.03412 452.68346,259.75651 C 452.68346,265.54855 450.60149,269.96866 445.89924,274.15971 C 441.70139,277.9012 433.64015,282.13349 427.2741,283.93824 C 426.13644,284.26076 425.07177,283.83258 422.25185,281.91842 z M 401.22514,272.82156 C 396.90302,271.04359 395.37884,269.89241 390.27781,264.55321 C 379.48632,253.2579 375.15997,240.34961 378.85536,230.47279 L 380.10039,227.14516 L 381.0458,230.04522 C 382.38613,234.1567 384.33169,237.06337 387.0757,239.05386 L 389.44879,240.7753 L 389.80513,237.95615 C 390.34544,233.68154 391.94067,230.68318 397.87995,222.77887 C 400.86561,218.80536 403.74958,214.90733 404.28876,214.11658 C 405.21674,212.75561 405.27068,214.32025 405.29936,243.42997 C 405.31602,260.34308 405.13475,274.17491 404.89653,274.16736 C 404.65832,274.15983 403.00621,273.55421 401.22514,272.82156 z M 411.68198,202.36489 C 411.68198,202.25049 412.74989,199.84671 414.05508,197.02314 C 417.28085,190.04477 420.10543,181.39961 421.20404,175.1423 C 422.97889,165.03359 422.10223,151.04193 419.23984,143.79234 C 417.33506,138.96814 417.51389,138.36959 422.68214,132.27051 C 425.23844,129.25381 427.17424,126.62992 426.98396,126.43962 C 426.79366,126.24933 424.03463,126.16643 420.85274,126.2554 L 415.06752,126.41716 L 415.7481,125.1455 C 416.1224,124.44609 416.63502,123.15433 416.88724,122.27492 L 417.34579,120.67599 L 413.35891,120.2756 L 409.37203,119.87522 L 409.37203,110.9828 L 409.37203,102.09038 L 452.95678,102.09038 L 449.80151,104.21527 C 438.38933,111.90067 431.17729,126.71914 431.16156,142.51437 C 431.15695,147.15077 431.44716,148.8916 433.03525,153.75391 C 434.06878,156.91829 435.1193,160.94625 435.36972,162.70493 C 435.98863,167.05117 435.07172,173.93346 433.0208,180.33603 C 430.9753,186.72167 430.95939,186.9823 432.61585,186.97511 C 436.98214,186.95616 445.47017,180.20714 448.40014,174.42463 C 450.25281,170.76828 450.37595,168.63788 449.76702,150.77717 C 449.47479,142.20584 450.0503,140.2988 451.8885,143.74736 C 452.65318,145.18193 452.98463,147.38985 453.15481,152.1829 C 453.28158,155.7537 453.60918,158.53691 453.88277,158.36782 C 454.65302,157.89178 457.11716,149.53208 457.55312,145.91601 C 457.81472,143.74623 457.64727,141.3985 457.04601,138.80598 C 455.93141,133.99984 455.93206,133.57341 457.05585,132.44962 C 458.29965,131.20582 458.73672,131.29119 460.86618,133.19387 C 462.65306,134.79045 462.72288,135.0266 462.95778,140.26807 C 463.09143,143.25043 463.38854,145.8929 463.61805,146.14022 C 464.3939,146.97636 467.0398,144.23828 468.66982,140.91246 C 469.93844,138.32396 470.29113,136.79045 470.29362,133.85209 C 470.29642,130.51115 469.96064,129.39161 467.23974,123.67002 C 463.90514,116.65791 463.17857,113.87816 464.18758,111.99282 C 466.40389,107.85159 476.88115,107.51186 484.45594,111.3356 C 488.72763,113.49193 493.27269,118.45323 494.57876,122.38549 C 496.19603,127.25463 495.4791,132.37235 492.27405,138.83746 C 489.08095,145.27841 484.47361,151.27354 472.58363,164.45882 C 458.17798,180.43385 451.94993,188.81013 447.57349,198.09564 L 445.46488,202.56945 L 428.57343,202.57116 C 419.28314,202.5721 411.68198,202.47927 411.68198,202.36489 z M 529.92035,199.88018 L 531.4253,197.18749 L 530.02405,197.59711 C 517.53182,201.24885 511.96642,202.00757 498.11866,201.9467 L 487.04385,201.89803 L 495.54339,200.26744 C 505.76874,198.30577 510.15175,196.9071 515.03583,194.04716 C 527.19732,186.92584 536.27719,171.44843 538.49202,154.06408 L 538.89668,150.88791 L 533.75976,155.79851 C 526.14749,163.07535 523.24715,164.34159 500.09261,170.49708 C 487.96777,173.72038 479.44401,177.59722 472.01629,183.26692 C 468.88291,185.65869 469.10242,185.10073 473.12949,180.43739 C 480.0066,172.47367 489.05397,167.68588 508.19874,161.87904 C 522.7401,157.46847 528.33406,150.23385 528.33406,135.83825 C 528.33406,130.12579 526.91586,121.14741 526.01353,121.14741 C 525.78808,121.14741 525.43979,122.34275 525.23954,123.80372 C 524.35168,130.28137 519.25853,136.35787 510.31257,141.61268 C 507.67851,143.15991 504.30761,145.28129 502.82165,146.32688 L 500.1199,148.22794 L 502.37637,143.49433 C 505.63411,136.66028 506.58843,132.34997 506.25539,125.97431 C 506.02719,121.60589 505.66285,120.01828 504.14329,116.77107 C 501.67543,111.49739 498.70545,107.70763 494.63136,104.63371 L 491.24663,102.07992 L 551.14473,102.37913 L 551.43985,202.57287 L 539.92762,202.57287 L 528.41537,202.57287 L 529.92035,199.88018 z M 401.84808,118.00499 C 398.5758,116.79892 393.7962,114.26682 389.44879,111.43616 C 387.22547,109.98852 382.9476,107.29351 379.94242,105.44724 L 374.47843,102.09038 L 389.90404,102.09038 L 405.32964,102.09038 L 405.32964,110.46392 C 405.32964,119.59469 405.45057,119.33276 401.84808,118.00499 z"
       style="fill:url(#radialGradient3149);fill-opacity:1;fill-rule:evenodd;stroke:none;stroke-width:1px;stroke-linecap:butt;stroke-linejoin:miter;marker:none;marker-start:none;marker-mid:none;marker-end:none;stroke-miterlimit:4;stroke-dasharray:none;stroke-dashoffset:0;stroke-opacity:1;visibility:visible;display:inline;overflow:visible;enable-background:accumulate"
       sodipodi:nodetypes="csssssssssssssssssscccccsssssssscccccccccsssssssssssccccccccccccssscccccsssssssscccssscccccccccccccccsssssccsccccccssssccssssscccccccccccssssssssssssssssssssssssccccccccccscccsssssssscccssccccccccscccccc" />
    <path
       id="path2441"
       d="M 120.05181,308.25272 L 239.72568,308.25272 L 237.58417,310.62311 C 234.97997,313.50565 232.35257,318.90309 231.45952,323.20488 C 231.07903,325.03768 230.89878,329.35103 231.03563,333.3484 C 231.31207,341.42255 232.34081,344.32225 237.30426,351.01759 C 242.0954,357.48046 246.71637,361.34975 254.67447,365.56228 L 261.82448,369.34705 L 261.98217,379.51261 C 262.06891,385.10369 261.93898,389.66736 261.69344,389.65412 C 260.40734,389.58481 249.45036,385.39737 243.80055,382.816 C 240.23975,381.1891 235.83235,379.46882 234.00634,378.99321 C 229.77725,377.89167 223.59008,377.90166 218.85555,379.01768 C 214.39889,380.06817 208.62135,383.03943 207.39453,384.91179 C 206.33456,386.52952 204.26978,387.66034 199.54201,389.21239 C 193.70865,391.12738 189.81977,394.27241 188.48079,398.15785 C 187.36681,401.39043 188.21993,402.05463 191.25607,400.31856 C 194.70247,398.34791 197.04311,398.49262 199.79298,400.84643 C 202.47199,403.13956 205.40291,404.11532 209.6119,404.11532 C 212.29721,404.11532 213.31385,403.74341 217.34094,401.28783 C 222.12841,398.36863 229.43256,395.49656 230.1767,396.24069 C 231.4926,397.5566 226.86,400.66234 221.93844,401.76375 C 218.30291,402.57735 215.64403,404.57231 214.479,407.3606 L 213.66336,409.31269 L 120.05181,409.31269 L 120.05181,308.25272 z M 266.15563,381.60437 C 266.15563,376.83407 266.35939,372.93111 266.60845,372.93111 C 267.2669,372.93111 272.83962,378.77231 273.59677,380.25607 C 273.95078,380.94983 274.24041,382.5287 274.24041,383.7647 C 274.24041,386.74704 271.97385,388.88683 267.74371,389.89803 L 266.15563,390.27767 L 266.15563,381.60437 z M 335.01201,321.86359 C 328.53886,320.63082 323.42449,318.92935 311.1995,313.9415 C 305.00596,311.41453 299.41879,309.11703 298.78355,308.83596 C 298.09822,308.53272 309.34448,308.36894 326.44065,308.43319 L 355.25273,308.54146 L 356.46989,310.17189 C 358.05842,312.29975 358.14865,316.8612 356.6353,318.53343 C 353.52978,321.96497 343.58586,323.49642 335.01201,321.86359 z M 120.05181,206.03778 L 177.29014,206.03778 L 234.52847,206.03778 L 234.11129,209.9332 C 233.22672,218.19323 229.57161,224.76376 224.28793,227.59201 C 222.48607,228.5565 220.96181,228.83067 217.35808,228.83846 C 211.35166,228.85145 208.20719,227.34242 201.1885,221.07866 C 198.32994,218.52757 194.57247,215.7318 192.83853,214.86582 C 190.01187,213.45412 188.92636,213.26766 182.34008,213.06245 C 170.90368,212.70612 166.99082,213.85992 158.18144,220.18618 C 153.02774,223.88719 151.81351,225.15944 151.81351,226.85838 C 151.81351,229.36437 153.35471,229.88628 155.816,228.2138 C 158.01768,226.71772 160.63839,226.45737 163.94451,227.40629 C 165.05408,227.72475 168.6572,228.09422 171.95144,228.22733 C 175.24569,228.36044 178.22119,228.74956 178.56366,229.09202 C 178.90611,229.43448 179.06938,229.72849 178.92646,229.74536 C 178.78353,229.76223 175.67811,229.84016 172.0255,229.91854 C 164.9554,230.07024 160.61171,231.32659 158.94876,233.7008 C 158.5337,234.29338 157.25135,234.95508 156.09913,235.17124 C 154.63175,235.44653 152.98405,236.55629 150.5989,238.87577 C 147.65824,241.73546 147.19363,242.47775 147.19363,244.3161 L 147.19363,246.44492 L 150.10244,245.29837 C 154.64118,243.50937 157.31493,243.76879 161.71989,246.42553 C 167.31589,249.80064 169.53986,249.79988 173.3779,246.4215 C 176.15598,243.97615 177.22287,243.88694 177.22287,246.09999 C 177.22287,247.03601 176.28888,248.04449 173.90364,249.68396 C 170.95084,251.71356 170.44058,252.36899 169.28132,255.62134 C 168.56463,257.6321 167.0839,260.32211 165.99082,261.59913 C 163.65351,264.32975 162.20824,268.19042 162.20824,271.70338 C 162.20824,274.77107 163.21872,275.35131 165.60365,273.65309 C 167.14951,272.55234 167.58896,272.50013 170.34076,273.09028 C 174.38624,273.95788 181.60182,273.49007 184.1527,272.19481 C 185.26437,271.63034 187.65174,270.02289 189.45799,268.62271 C 198.3884,261.69993 206.03089,261.45139 210.72474,267.93106 C 213.07512,271.17567 212.99515,273.24132 210.42525,275.66503 C 209.31194,276.71502 208.63495,277.71866 208.92084,277.89535 C 209.64136,278.34066 214.63079,277.33813 217.69798,276.13177 C 219.09912,275.58067 221.80473,274.16258 223.71044,272.98046 C 234.2084,266.4685 247.37966,266.44826 258.84903,272.92645 L 261.82448,274.60705 L 261.97961,287.64804 L 262.13477,300.68903 L 259.95842,301.02839 C 253.69642,302.00483 250.5776,302.69693 247.96483,303.68988 C 245.19253,304.74347 242.58456,304.78723 182.56461,304.78752 L 120.05181,304.7878 L 120.05181,206.03778 z M 284.05767,303.89628 C 280.83628,302.8869 273.88398,301.52085 269.47615,301.03118 L 266.15563,300.6623 L 266.15563,289.31659 L 266.15563,277.97088 L 269.66067,281.41772 C 271.58846,283.31348 274.07934,286.09893 275.19597,287.60761 C 278.64241,292.26411 279.05005,291.28323 276.83909,283.65371 C 274.49406,275.56144 275.05479,269.29364 278.45475,265.59461 C 280.55128,263.31367 285.10223,261.48837 288.70853,261.48203 C 295.20702,261.4706 300.27096,265.51826 306.02724,275.32502 C 313.94522,288.81457 323.06376,296.03034 337.44307,300.18526 C 340.88295,301.17921 345.02599,302.60011 346.64982,303.34281 L 349.60227,304.69317 L 318.1293,304.70186 C 292.64111,304.70889 286.1622,304.55571 284.05767,303.89628 z M 120.05181,102.09038 L 209.81869,102.09038 L 208.6097,103.29938 C 207.83109,104.07799 206.29496,104.64333 204.2946,104.88747 C 199.2128,105.50768 200.11253,106.85133 207.6649,109.92058 C 209.76589,110.77442 210.22442,111.28774 211.01656,113.67261 C 212.12084,116.99731 213.68818,118.14499 218.1144,118.87 C 219.92175,119.16604 221.43766,119.40976 221.48309,119.4116 C 221.85878,119.42682 222.16174,121.3265 221.89808,122.01363 C 221.19969,123.83358 217.11854,122.30423 211.35897,118.06427 C 206.96593,114.8303 204.97439,114.39674 199.89392,115.56833 C 197.74739,116.06334 194.22581,116.75109 192.06814,117.09667 C 187.43323,117.83902 184.1527,119.26759 184.1527,120.5436 C 184.1527,121.28401 184.85619,121.45622 187.84417,121.44724 C 192.00013,121.43475 193.31499,122.22201 195.15309,125.82345 C 196.96945,129.38226 198.64672,130.09843 205.16503,130.09843 C 209.91188,130.09843 210.97899,130.26408 211.49694,131.08134 C 212.48628,132.64237 211.60686,132.88684 207.67254,132.14448 C 203.15362,131.29182 195.87306,132.14161 192.95712,133.86207 C 191.88978,134.49181 189.79699,135.30697 188.30647,135.67355 C 182.67682,137.05807 173.85927,141.89945 172.56594,144.31604 C 171.42803,146.44225 172.66265,146.80808 177.21285,145.69299 C 182.1944,144.4722 184.58442,144.78273 187.45906,147.02427 C 191.66304,150.30236 196.76544,150.85845 204.36467,148.86671 C 209.88332,147.42029 211.65326,147.43005 215.65944,148.92896 C 218.29885,149.91649 219.06575,150.51233 219.7235,152.08658 C 221.39359,156.08366 220.40085,161.46858 216.1814,171.29978 C 214.77103,174.58588 213.18446,179.39345 212.6557,181.98326 C 211.69671,186.68017 211.83567,190.02398 213.42134,200.4073 L 213.75205,202.57287 L 166.90195,202.57287 L 120.05181,202.57287 L 120.05181,102.09038 z M 217.97076,201.27352 C 219.75833,195.49221 224.31999,191.43833 227.60846,192.70863 C 229.98483,193.6266 232.57056,197.28522 233.45764,200.98478 L 233.83844,202.57287 L 225.70373,202.57287 L 217.56901,202.57287 L 217.97076,201.27352 z M 266.33182,199.63955 C 266.52579,198.8667 267.11193,194.98766 267.63433,191.01948 C 268.82259,181.99364 268.48074,156.71886 267.06423,148.86671 C 266.3768,145.05619 266.17613,139.27499 266.16717,123.02423 L 266.15563,102.09038 L 301.38223,102.09038 C 335.10274,102.09038 336.60886,102.13546 336.60886,103.14469 C 336.60886,104.49482 338.65958,106.4196 341.25217,107.50286 C 342.36805,107.96911 346.45356,108.76332 350.33108,109.26777 C 361.2067,110.68265 366.06061,112.90923 366.06061,116.48321 C 366.06061,118.45549 363.55579,121.72489 362.04476,121.72489 C 360.52034,121.72489 358.3353,119.78754 356.32318,116.65191 C 354.2385,113.4032 351.52501,111.71353 346.37375,110.4564 C 338.05884,108.42722 314.19702,108.85129 311.74334,111.07185 C 311.1266,111.62999 310.62201,112.57412 310.62201,113.16992 C 310.62201,113.76572 311.97235,117.67015 313.62278,121.84643 C 316.41201,128.90427 319.46542,134.15995 320.75738,134.12675 C 321.05883,134.119 325.16549,133.75831 329.88329,133.32521 C 338.53502,132.53098 344.80065,132.72094 348.9977,133.90474 C 351.59837,134.63827 355.08839,137.81786 355.08839,139.4537 C 355.08839,141.63701 354.05156,141.83642 350.11979,140.40926 C 344.86501,138.50188 336.95615,137.71127 330.51687,138.44965 C 327.67394,138.77564 321.10061,140.07186 315.90952,141.33013 C 304.11051,144.19009 298.37992,144.728 293.37382,143.44551 C 288.78205,142.26915 286.53012,140.68414 285.15803,137.66287 C 283.32824,133.6338 284.03857,128.08243 286.77009,125.06413 C 289.11248,122.47582 294.09488,122.65844 297.90902,125.47242 C 300.29771,127.23473 301.34457,127.28362 303.32556,125.72538 C 306.40215,123.30532 304.76904,119.97587 299.07228,117.05432 C 295.43384,115.18835 288.26978,115.11722 284.92389,116.91384 C 282.05617,118.45371 279.96988,120.66387 278.20197,124.03483 C 277.02133,126.28606 276.83909,127.44426 276.83909,132.69712 C 276.83909,138.40909 276.94288,138.9449 278.62861,141.93688 C 280.78619,145.76636 284.75031,148.94212 289.19574,150.40251 C 291.69673,151.22411 294.13545,151.45777 299.93852,151.4318 C 306.84044,151.40092 308.2608,151.19283 317.55184,148.85146 C 326.97797,146.47603 328.1823,146.30347 335.45388,146.28637 C 341.57309,146.27197 343.96416,146.5024 346.57048,147.35768 C 348.39678,147.95699 349.89102,148.76257 349.89102,149.14786 C 349.89102,150.44646 346.46382,154.5924 344.58884,155.56199 C 341.2545,157.28624 330.00468,155.59804 324.50044,152.54743 C 322.42805,151.39885 321.46242,151.19338 319.5918,151.50291 C 318.311,151.71486 316.83786,152.11129 316.31814,152.38387 C 314.81252,153.17354 309.79826,160.31384 307.433,165.03631 C 304.97552,169.94295 300.09668,181.8453 300.41319,182.16181 C 300.52786,182.27648 302.66382,181.42677 305.15977,180.27357 C 307.65574,179.12038 311.11589,177.68897 312.84903,177.09269 C 316.52686,175.82733 320.07944,175.64001 319.72019,176.73039 C 319.49658,177.40908 316.16655,180.10826 313.73725,181.57992 C 313.04603,181.99866 313.91897,181.9381 316.10811,181.41544 C 318.01382,180.96046 321.69786,180.53228 324.29486,180.46394 C 328.3161,180.35811 329.25864,180.52029 330.6472,181.55697 C 333.06098,183.35903 332.94362,186.23837 330.39572,187.72641 C 326.33097,190.10036 315.95508,191.58107 303.11469,191.61961 C 294.6833,191.6449 285.90613,192.45495 281.45899,193.61822 C 277.62359,194.62147 270.50335,197.8232 267.75404,199.78088 L 265.97913,201.04473 L 266.33182,199.63955 z M 259.85649,125.99962 C 256.62022,119.74115 251.28148,112.75599 245.53725,107.26446 L 240.12505,102.09038 L 251.11914,102.09038 L 262.11322,102.09038 L 262.11322,115.95004 C 262.11322,123.57284 262.04825,129.80873 261.96884,129.80755 C 261.88945,129.80638 260.93889,128.09281 259.85649,125.99962 z"
       style="fill:url(#radialGradient3146);fill-opacity:1;fill-rule:evenodd;stroke:none;stroke-width:1px;stroke-linecap:butt;stroke-linejoin:miter;marker:none;marker-start:none;marker-mid:none;marker-end:none;stroke-miterlimit:4;stroke-dasharray:none;stroke-dashoffset:0;stroke-opacity:1;visibility:visible;display:inline;overflow:visible;enable-background:accumulate"
       sodipodi:nodetypes="cccssscccssssssssssssscccccsssccccsscccscccccsssssssssssssssscccsssssssssssssssscccccscccccccccsssssscccccccsssssssssssssssssssssssssccccccsccccccsscccssssssssssssssssssssssssssssssssssssssssssssssssscccccccccsc" />
    <g
       style="fill:#fcef3c;fill-opacity:1;stroke:#000000;stroke-width:6;stroke-miterlimit:4;stroke-dasharray:none;stroke-opacity:1"
       id="g3861"
       transform="matrix(0.5630116,0,0,0.4720347,5407.9579,1749.0802)">
      <g
         id="g3850"
         transform="translate(-172.41382,-97.480119)" />
    </g>
    <path
       style="fill:#ff0000;fill-opacity:1;fill-rule:nonzero;stroke:none;stroke-width:3;stroke-linecap:round;stroke-linejoin:round;marker:none;marker-start:none;marker-mid:none;marker-end:none;stroke-miterlimit:4;stroke-dasharray:none;stroke-dashoffset:0;stroke-opacity:1;visibility:visible;display:inline;overflow:visible;enable-background:accumulate"
       d=""
       id="path2522" />
    <path
       style="fill:#ffff00;fill-opacity:1;fill-rule:nonzero;stroke:none;stroke-width:3;stroke-linecap:round;stroke-linejoin:round;marker:none;marker-start:none;marker-mid:none;marker-end:none;stroke-miterlimit:4;stroke-dasharray:none;stroke-dashoffset:0;stroke-opacity:1;visibility:visible;display:inline;overflow:visible;enable-background:accumulate"
       d=""
       id="path2652" />
    <path
       style="fill:#ffff00;fill-opacity:1;fill-rule:nonzero;stroke:none;stroke-width:3;stroke-linecap:round;stroke-linejoin:round;marker:none;marker-start:none;marker-mid:none;marker-end:none;stroke-miterlimit:4;stroke-dasharray:none;stroke-dashoffset:0;stroke-opacity:1;visibility:visible;display:inline;overflow:visible;enable-background:accumulate"
       d=""
       id="path2662" />
    <path
       style="fill:#ffff00;fill-opacity:1;fill-rule:nonzero;stroke:none;stroke-width:3;stroke-linecap:round;stroke-linejoin:round;marker:none;marker-start:none;marker-mid:none;marker-end:none;stroke-miterlimit:4;stroke-dasharray:none;stroke-dashoffset:0;stroke-opacity:1;visibility:visible;display:inline;overflow:visible;enable-background:accumulate"
       d=""
       id="path2672" />
    <path
       style="fill:#ffff00;fill-opacity:1;fill-rule:nonzero;stroke:none;stroke-width:3;stroke-linecap:round;stroke-linejoin:round;marker:none;marker-start:none;marker-mid:none;marker-end:none;stroke-miterlimit:4;stroke-dasharray:none;stroke-dashoffset:0;stroke-opacity:1;visibility:visible;display:inline;overflow:visible;enable-background:accumulate"
       d=""
       id="path2708" />
    <path
       style="fill:#ffff00;fill-opacity:1;fill-rule:nonzero;stroke:none;stroke-width:3;stroke-linecap:round;stroke-linejoin:round;marker:none;marker-start:none;marker-mid:none;marker-end:none;stroke-miterlimit:4;stroke-dasharray:none;stroke-dashoffset:0;stroke-opacity:1;visibility:visible;display:inline;overflow:visible;enable-background:accumulate"
       d=""
       id="path2718" />
    <path
       style="fill:#ffff00;fill-opacity:1;fill-rule:nonzero;stroke:none;stroke-width:3;stroke-linecap:round;stroke-linejoin:round;marker:none;marker-start:none;marker-mid:none;marker-end:none;stroke-miterlimit:4;stroke-dasharray:none;stroke-dashoffset:0;stroke-opacity:1;visibility:visible;display:inline;overflow:visible;enable-background:accumulate"
       d=""
       id="path2724" />
    <path
       style="fill:#ffff00;fill-opacity:1;fill-rule:nonzero;stroke:none;stroke-width:3;stroke-linecap:round;stroke-linejoin:round;marker:none;marker-start:none;marker-mid:none;marker-end:none;stroke-miterlimit:4;stroke-dasharray:none;stroke-dashoffset:0;stroke-opacity:1;visibility:visible;display:inline;overflow:visible;enable-background:accumulate"
       d=""
       id="path2728" />
    <path
       style="font-size:56.77885818px;font-style:normal;font-variant:normal;font-weight:bold;font-stretch:normal;text-align:start;line-height:125%;writing-mode:lr-tb;text-anchor:start;fill:#000000;fill-opacity:1;stroke:none;stroke-width:1px;stroke-linecap:butt;stroke-linejoin:miter;stroke-opacity:1;font-family:Arial;-inkscape-font-specification:Arial Bold"
       d="M 134.93243,468.09688 L 120.6031,422.38408 L 129.38119,422.38408 L 139.52656,456.21654 L 149.34378,422.38408 L 157.93045,422.38408 L 143.57378,468.09688 L 134.93243,468.09688 z M 161.86827,468.09688 L 161.86827,422.38408 L 169.9627,422.38408 L 169.9627,468.09688 L 161.86827,468.09688 z M 177.8657,468.09688 L 177.8657,422.75826 L 185.96013,422.75826 L 185.96013,460.39493 L 204.08681,460.39493 L 204.08681,468.09688 L 177.8657,468.09688 z M 212.10293,468.09688 L 212.10293,422.75826 L 220.19736,422.75826 L 220.19736,460.39493 L 238.32404,460.39493 L 238.32404,468.09688 L 212.10293,468.09688 z M 246.1214,468.09688 L 246.1214,422.38408 L 271.84653,422.38408 L 271.84653,430.11722 L 254.21583,430.11722 L 254.21583,442.25136 L 272.3425,442.25136 L 272.3425,449.95332 L 254.21583,449.95332 L 254.21583,460.39493 L 272.61223,460.39493 L 272.61223,468.09688 L 246.1214,468.09688 z"
       id="text3140"
       sodipodi:nodetypes="cccccccccccccccccccccccccccccccccccccccc" />
  </g>
</svg>
