<?xml version="1.0" encoding="UTF-8" standalone="no"?>
<!-- Created with Inkscape (http://www.inkscape.org/) -->

<svg
   xmlns:dc="http://purl.org/dc/elements/1.1/"
   xmlns:cc="http://creativecommons.org/ns#"
   xmlns:rdf="http://www.w3.org/1999/02/22-rdf-syntax-ns#"
   xmlns:svg="http://www.w3.org/2000/svg"
   xmlns="http://www.w3.org/2000/svg"
   xmlns:sodipodi="http://sodipodi.sourceforge.net/DTD/sodipodi-0.dtd"
   xmlns:inkscape="http://www.inkscape.org/namespaces/inkscape"
   id="svg2"
   version="1.1"
   inkscape:version="0.91 r13725"
   width="80"
   height="80"
   viewBox="0 0 80 80"
   sodipodi:docname="picto-fork.svg">
  <metadata
     id="metadata8">
    <rdf:RDF>
      <cc:Work
         rdf:about="">
        <dc:format>image/svg+xml</dc:format>
        <dc:type
           rdf:resource="http://purl.org/dc/dcmitype/StillImage" />
        <dc:title></dc:title>
      </cc:Work>
    </rdf:RDF>
  </metadata>
  <defs
     id="defs6" />
  <sodipodi:namedview
     pagecolor="#ffffff"
     bordercolor="#666666"
     borderopacity="1"
     objecttolerance="10"
     gridtolerance="10"
     guidetolerance="10"
     inkscape:pageopacity="0"
     inkscape:pageshadow="2"
     inkscape:window-width="1324"
     inkscape:window-height="821"
     id="namedview4"
     showgrid="false"
     inkscape:zoom="8.34"
     inkscape:cx="54.388489"
     inkscape:cy="35.217803"
     inkscape:window-x="65"
     inkscape:window-y="24"
     inkscape:window-maximized="0"
     inkscape:current-layer="svg2" />
  <g
     id="g3338"
     transform="translate(-0.23980826,0.11990409)">
    <path
       style="fill:#fed300"
       d="M 33.531595,65.646761 C 31.891759,64.447684 31.753341,63.354517 32.316558,56.05087 32.973323,47.53412 31.864079,43.151431 28.583089,41.299702 27.803764,40.859866 23.941955,37.384733 20.001292,33.577185 13.658724,27.448867 12.951703,26.401416 13.840703,24.450273 15.479418,20.853686 21.077682,15 22.87862,15 c 0.919289,0 5.02391,3.375 9.12138,7.5 4.09747,4.125 8.073401,7.5 8.835403,7.5 0.762001,0 4.970291,-3.372354 9.351754,-7.494121 6.708107,-6.310506 8.264099,-7.334742 9.851846,-6.485005 C 61.975479,17.057244 68,25.16729 68,26.737751 c 0,0.482571 -4.275,5.077107 -9.5,10.210081 l -9.5,9.33268 0,9.743112 c 0,9.258643 -0.11188,9.773096 -2.25,10.34609 -3.990164,1.069322 -11.315214,0.668694 -13.218405,-0.722953 z"
       id="path3340"
       inkscape:connector-curvature="0" />
  </g>
</svg>
