<?xml version="1.0" encoding="UTF-8" standalone="no"?>
<!-- Created with Inkscape (http://www.inkscape.org/) -->

<svg
   xmlns:dc="http://purl.org/dc/elements/1.1/"
   xmlns:cc="http://creativecommons.org/ns#"
   xmlns:rdf="http://www.w3.org/1999/02/22-rdf-syntax-ns#"
   xmlns:svg="http://www.w3.org/2000/svg"
   xmlns="http://www.w3.org/2000/svg"
   xmlns:sodipodi="http://sodipodi.sourceforge.net/DTD/sodipodi-0.dtd"
   xmlns:inkscape="http://www.inkscape.org/namespaces/inkscape"
   id="svg2"
   version="1.1"
   inkscape:version="0.91 r13725"
   width="625"
   height="625"
   viewBox="0 0 625 624.99999"
   sodipodi:docname="picto-fork.svg">
  <metadata
     id="metadata8">
    <rdf:RDF>
      <cc:Work
         rdf:about="">
        <dc:format>image/svg+xml</dc:format>
        <dc:type
           rdf:resource="http://purl.org/dc/dcmitype/StillImage" />
        <dc:title />
      </cc:Work>
    </rdf:RDF>
  </metadata>
  <defs
     id="defs6" />
  <sodipodi:namedview
     pagecolor="#ffffff"
     bordercolor="#666666"
     borderopacity="1"
     objecttolerance="10"
     gridtolerance="10"
     guidetolerance="10"
     inkscape:pageopacity="0"
     inkscape:pageshadow="2"
     inkscape:window-width="1817"
     inkscape:window-height="853"
     id="namedview4"
     showgrid="false"
     showguides="true"
     inkscape:zoom="1.1"
     inkscape:cx="162.89999"
     inkscape:cy="314.19486"
     inkscape:window-x="75"
     inkscape:window-y="24"
     inkscape:window-maximized="0"
     inkscape:current-layer="svg2" />
  <g
     id="g3338"
     transform="matrix(10.740907,0,0,10.740907,-522.68602,-762.20661)">
    <path
       style="fill:#fdd30f"
       d="m 96.323565,115.86339 c -51.338397,19.96505 -25.669198,9.98252 0,0 z m -24.023567,0.14691 -0.75,-0.38085 -0.02823,-5.98973 c -0.01824,-3.86852 -0.15426,-6.29728 -0.38409,-6.85817 -0.195717,-0.47764 -1.388784,-1.82764 -2.651256,-2.999998 -6.865968,-6.375876 -9.264048,-8.734758 -9.513978,-9.358473 -0.225744,-0.563355 -0.07467,-0.998262 0.809139,-2.32938 1.445562,-2.177171 2.817927,-3.714995 4.227693,-4.737401 0.974385,-0.706653 1.261452,-0.786423 1.8,-0.500175 0.352404,0.187308 2.854893,2.478804 5.561088,5.092214 3.475494,3.356349 5.124729,4.751658 5.616372,4.751658 0.490488,0 2.120841,-1.372626 5.520872,-4.648131 2.653665,-2.55647 5.072124,-4.780466 5.37435,-4.942214 0.424026,-0.226932 0.814224,-0.101889 1.708773,0.54759 2.00004,1.452114 4.901628,5.412287 4.917675,6.711794 0.0061,0.495996 -1.62522,2.269947 -6.005955,6.530961 l -6.014364,5.849995 0.0015,6.15 c 6e-4,3.3825 -0.111825,6.32852 -0.250158,6.5467 -0.399375,0.62989 -2.331083,0.93878 -5.889293,0.94172 -2.078409,0.002 -3.577635,-0.13824 -4.05,-0.37811 z"
       id="path3348"
       inkscape:connector-curvature="0"
       sodipodi:nodetypes="ccccsssssssssssscsccsccc" />
  </g>
</svg>
