<?xml version="1.0" encoding="UTF-8" standalone="no"?>
<!-- Created with Inkscape (http://www.inkscape.org/) -->

<svg
   xmlns:dc="http://purl.org/dc/elements/1.1/"
   xmlns:cc="http://creativecommons.org/ns#"
   xmlns:rdf="http://www.w3.org/1999/02/22-rdf-syntax-ns#"
   xmlns:svg="http://www.w3.org/2000/svg"
   xmlns="http://www.w3.org/2000/svg"
   xmlns:sodipodi="http://sodipodi.sourceforge.net/DTD/sodipodi-0.dtd"
   xmlns:inkscape="http://www.inkscape.org/namespaces/inkscape"
   version="1.1"
   id="svg2"
   width="204.8"
   height="153.60001"
   viewBox="0 0 204.8 153.60001"
   sodipodi:docname="apero-projet-logo.svg"
   inkscape:version="0.92.3 (2405546, 2018-03-11)">
  <metadata
     id="metadata8">
    <rdf:RDF>
      <cc:Work
         rdf:about="">
        <dc:format>image/svg+xml</dc:format>
        <dc:type
           rdf:resource="http://purl.org/dc/dcmitype/StillImage" />
        <dc:title></dc:title>
      </cc:Work>
    </rdf:RDF>
  </metadata>
  <defs
     id="defs6" />
  <sodipodi:namedview
     pagecolor="#ffffff"
     bordercolor="#666666"
     borderopacity="1"
     objecttolerance="10"
     gridtolerance="10"
     guidetolerance="10"
     inkscape:pageopacity="0"
     inkscape:pageshadow="2"
     inkscape:window-width="1393"
     inkscape:window-height="846"
     id="namedview4"
     showgrid="false"
     inkscape:zoom="1.5364583"
     inkscape:cx="102.4"
     inkscape:cy="86.562715"
     inkscape:window-x="67"
     inkscape:window-y="27"
     inkscape:window-maximized="0"
     inkscape:current-layer="svg2" />
  <g
     id="g22"
     transform="translate(0,2)">
    <path
       style="fill:#fdc212;stroke-width:0.32000002"
       d="M 19.093333,146.66668 C 18.976,146.54934 18.88,119.11977 18.88,85.712063 V 24.970783 L 20.4,24.205787 C 23.078316,22.857826 61.718963,5.4400004 62.031037,5.4400004 c 0.16527,0 0.387897,0.2277772 0.494726,0.5061718 0.267258,0.6964606 0.202106,28.6497888 -0.06826,29.2843228 C 62.337878,35.511266 60.944,36.818457 59.36,38.135362 50.076586,45.853405 42.755219,56.601063 38.90704,68.160004 30.009274,94.88663 38.092013,123.58614 59.606355,141.65739 c 2.836224,2.38232 3.238407,2.96611 2.949523,4.28139 l -0.206729,0.94123 H 40.827907 c -11.836682,0 -21.61724,-0.096 -21.734574,-0.21333 z m 119.655807,-0.0595 c -0.2308,-0.37344 0.37164,-1.05943 1.89086,-2.15307 4.98106,-3.58571 10.63962,-9.19079 14.47277,-14.33598 8.74559,-11.73906 13.23831,-25.31406 13.25084,-40.038094 0.01,-11.159169 -2.0444,-20.238456 -6.74371,-29.810604 C 156.6138,50.072336 150.14662,42.284435 140.91573,35.337068 L 138.56,33.564095 V 19.182048 c 0,-16.4442521 -0.31528,-15.0579652 3.08018,-13.5437216 1.0339,0.4610794 11.30244,4.9236506 22.81897,9.9168246 11.51654,4.993174 21.05433,9.259927 21.1951,9.481674 0.2946,0.464064 0.36539,120.571185 0.0715,121.337015 -0.17466,0.45515 -2.54348,0.50617 -23.50111,0.50617 -12.81878,0 -23.38277,-0.12279 -23.47551,-0.27286 z m -32.68768,-28.84714 c -3.07519,-2.992 -5.80425,-5.44 -6.06459,-5.44 -0.260336,0 -2.944528,2.376 -5.96487,5.28 -3.852557,3.70415 -5.711174,5.28 -6.227456,5.28 -1.49839,0 -6.820448,-6.30834 -6.858579,-8.12962 -0.0095,-0.45323 1.674889,-2.32885 5.2,-5.79038 l 5.214035,-5.12 -0.09493,-8.563044 -0.09494,-8.563037 -2.265161,-1.492295 C 81.893133,80.602213 78.425715,73.858693 78.815824,65.600004 79.07575,60.097294 81.153229,55.448359 85.100496,51.536311 87.631027,49.028355 90.45023,47.319616 93.92,46.190742 c 3.28385,-1.068384 8.43674,-1.192893 11.68,-0.282221 7.00967,1.968241 12.7379,7.356804 15.10719,14.211381 0.99942,2.891446 1.07272,10.410531 0.12827,13.160103 -1.89823,5.526346 -5.3644,9.732794 -10.33239,12.539092 l -1.65693,0.935961 -0.10307,8.702475 -0.10307,8.702477 1.75968,1.6 c 3.45223,3.13897 8.48789,7.98578 8.93515,8.60006 0.40546,0.55688 0.35424,0.8168 -0.47185,2.39462 -1.25646,2.39979 -5.25848,6.44532 -6.37602,6.44532 -0.64702,0 -2.08909,-1.2209 -6.4255,-5.44 z m -2.01888,-31.040004 c 0.15258,0 0.27742,-0.651088 0.27742,-1.446861 0,-1.278896 0.10216,-1.488122 0.88,-1.802292 3.46279,-1.398611 5.16464,-2.453417 7.13103,-4.419814 6.80131,-6.801306 6.81009,-17.580539 0.0198,-24.357899 -8.41259,-8.396628 -22.2668,-6.111518 -27.517424,4.53872 -1.826284,3.70439 -2.307094,6.963402 -1.560217,10.575386 0.291488,1.409674 0.965229,3.493143 1.497197,4.629933 1.579264,3.374813 5.588076,7.135946 8.989577,8.434164 1.503975,0.57401 1.92,1.163651 1.92,2.721255 v 1.310268 l 4.042583,-0.09143 c 2.223424,-0.05029 4.167424,-0.09143 4.320004,-0.09143 z m 38.13337,22.782024 c -3.29192,-1.17287 -5.73875,-3.6524 -7.00836,-7.10202 -0.80414,-2.18491 -0.97922,-8.278385 -0.31262,-10.880369 1.42983,-5.581165 5.11426,-8.623824 10.77648,-8.899376 8.04846,-0.39168 12.76855,4.653001 12.76855,13.646624 0,6.418341 -2.25626,10.717161 -6.72,12.803571 -2.37723,1.11115 -7.00666,1.32136 -9.50405,0.43157 z m 7.28388,-3.75228 c 1.4976,-0.77443 3.12691,-2.91008 3.70511,-4.85651 0.71048,-2.391739 0.72222,-6.715794 0.0246,-9.061826 -0.58538,-1.968608 -2.30414,-4.200784 -3.86167,-5.015207 -1.31754,-0.688941 -4.52533,-0.695721 -5.83192,-0.01232 -2.96873,1.552752 -4.43796,4.84057 -4.39547,9.836126 0.0376,4.420127 1.20941,7.145437 3.8031,8.844877 1.68497,1.10404 4.69807,1.22577 6.55625,0.26487 z M 117.44,96.320006 V 83.200005 h 2.08 2.08 v 1.386666 c 0,0.762669 0.0946,1.481251 0.21018,1.596851 0.1156,0.1156 0.88983,-0.425542 1.7205,-1.202537 1.71705,-1.606103 3.93223,-2.42098 6.58123,-2.42098 2.59133,0 2.68809,0.08763 2.68809,2.434237 0,2.252791 0.0382,2.223328 -2.20875,1.705373 -0.99067,-0.228365 -1.94036,-0.216099 -3.2,0.04133 -1.47779,0.302006 -2.04369,0.626195 -3.23379,1.852567 -2.18315,2.24968 -2.30643,2.870096 -2.47329,12.446498 l -0.14637,8.4 h -2.0489 -2.0489 z m -67.626861,5.200004 c -0.138438,-0.22973 12.471063,-33.432399 13.005747,-34.246047 0.356816,-0.542986 5.147402,-0.537799 5.583514,0.006 0.502483,0.626601 13.147811,33.970887 12.985014,34.239997 -0.251881,0.41637 -4.481456,0.27588 -4.816723,-0.16 -0.169222,-0.22 -0.921056,-2.15404 -1.670742,-4.29787 -0.749687,-2.143831 -1.576643,-3.979831 -1.83768,-4.080001 -0.261037,-0.100176 -3.699517,-0.182131 -7.641063,-0.182131 -8.372588,0 -7.422249,-0.478966 -9.2064,4.64 -0.613424,1.76 -1.216108,3.452002 -1.339299,3.760002 -0.184809,0.46206 -0.634397,0.56 -2.570857,0.56 -1.290784,0 -2.411962,-0.108 -2.491511,-0.24 z M 71.510733,88.654998 c 0.175101,-0.283319 -5.284099,-15.495028 -5.715811,-15.92674 -0.107207,-0.107207 -0.284404,-0.105437 -0.393773,0.0039 -0.424477,0.424473 -5.878691,15.652903 -5.706205,15.931994 0.244099,0.394963 11.571453,0.386157 11.815789,-0.0092 z"
       id="path28"
       inkscape:connector-curvature="0" />
    <path
       style="fill:#fe7d00;stroke-width:0.32000002"
       d="M 19.093333,146.66668 C 18.976,146.54934 18.88,119.11977 18.88,85.712063 V 24.970783 L 20.4,24.205787 C 23.078316,22.857826 61.718963,5.4400004 62.031037,5.4400004 c 0.16527,0 0.387897,0.2277772 0.494726,0.5061718 0.267258,0.6964606 0.202106,28.6497888 -0.06826,29.2843228 C 62.337878,35.511266 60.944,36.818457 59.36,38.135362 50.076586,45.853405 42.755219,56.601063 38.90704,68.160004 30.009274,94.88663 38.092013,123.58614 59.606355,141.65739 c 2.836224,2.38232 3.238407,2.96611 2.949523,4.28139 l -0.206729,0.94123 H 40.827907 c -11.836682,0 -21.61724,-0.096 -21.734574,-0.21333 z m 119.655807,-0.0595 c -0.2308,-0.37344 0.37164,-1.05943 1.89086,-2.15307 4.98106,-3.58571 10.63962,-9.19079 14.47277,-14.33598 8.74559,-11.73906 13.23831,-25.31406 13.25084,-40.038094 0.01,-11.159169 -2.0444,-20.238456 -6.74371,-29.810604 C 156.6138,50.072336 150.14662,42.284435 140.91573,35.337068 L 138.56,33.564095 V 19.182048 c 0,-16.4442521 -0.31528,-15.0579652 3.08018,-13.5437216 1.0339,0.4610794 11.30244,4.9236506 22.81897,9.9168246 11.51654,4.993174 21.05433,9.259927 21.1951,9.481674 0.2946,0.464064 0.36539,120.571185 0.0715,121.337015 -0.17466,0.45515 -2.54348,0.50617 -23.50111,0.50617 -12.81878,0 -23.38277,-0.12279 -23.47551,-0.27286 z m 3.42681,-37.10512 c -3.29192,-1.17287 -5.73875,-3.6524 -7.00836,-7.10202 -0.80414,-2.18491 -0.97922,-8.278385 -0.31262,-10.880369 1.42983,-5.581165 5.11426,-8.623824 10.77648,-8.899376 8.04846,-0.39168 12.76855,4.653001 12.76855,13.646624 0,6.418341 -2.25626,10.717161 -6.72,12.803571 -2.37723,1.11115 -7.00666,1.32136 -9.50405,0.43157 z m 7.28388,-3.75228 c 1.4976,-0.77443 3.12691,-2.91008 3.70511,-4.85651 0.71048,-2.391739 0.72222,-6.715794 0.0246,-9.061826 -0.58538,-1.968608 -2.30414,-4.200784 -3.86167,-5.015207 -1.31754,-0.688941 -4.52533,-0.695721 -5.83192,-0.01232 -2.96873,1.552752 -4.43796,4.84057 -4.39547,9.836126 0.0376,4.420127 1.20941,7.145437 3.8031,8.844877 1.68497,1.10404 4.69807,1.22577 6.55625,0.26487 z M 117.44,96.320006 V 83.200005 h 2.08 2.08 v 1.386666 c 0,0.762669 0.0946,1.481251 0.21018,1.596851 0.1156,0.1156 0.88983,-0.425542 1.7205,-1.202537 1.71705,-1.606103 3.93223,-2.42098 6.58123,-2.42098 2.59133,0 2.68809,0.08763 2.68809,2.434237 0,2.252791 0.0382,2.223328 -2.20875,1.705373 -0.99067,-0.228365 -1.94036,-0.216099 -3.2,0.04133 -1.47779,0.302006 -2.04369,0.626195 -3.23379,1.852567 -2.18315,2.24968 -2.30643,2.870096 -2.47329,12.446498 l -0.14637,8.4 h -2.0489 -2.0489 z m -25.2,7.468074 c -0.305312,-0.1232 -0.4,-2.0917 -0.4,-8.315776 0,-4.735988 -0.132003,-8.401022 -0.314883,-8.74274 -0.173187,-0.323603 -1.073187,-1.051037 -2,-1.616525 -3.896192,-2.377222 -6.456375,-5.221507 -8.418016,-9.35217 C 76.265354,65.565527 80.643789,52.911805 90.72,47.979488 c 3.407946,-1.668195 5.752717,-2.219485 9.44,-2.219485 3.72864,0 6.03236,0.551286 9.59603,2.296355 5.38783,2.638327 9.81931,8.329521 11.04418,14.183646 1.01928,4.871565 0.39844,9.761037 -1.80762,14.236033 -1.64689,3.340711 -5.36388,7.22146 -8.59259,8.971162 l -2.08,1.127194 -0.0855,8.28666 c -0.0563,5.458917 -0.2062,8.432077 -0.43918,8.712807 -0.44042,0.53067 -2.25519,0.55827 -2.77131,0.0422 -0.2815,-0.2815 -0.384,-2.93131 -0.384,-9.926865 v -9.542861 l 0.88,-0.3584 c 4.49185,-1.829415 6.81815,-3.566128 9.06797,-6.769761 3.81058,-5.426074 4.26752,-12.734797 1.16205,-18.58706 -2.06198,-3.885802 -6.49975,-7.413738 -10.9234,-8.683873 -2.88287,-0.82774 -8.285647,-0.52999 -11.06662,0.609892 -6.724029,2.756086 -11.178998,9.336183 -11.19527,16.53569 -0.01466,6.488346 4.126588,13.053518 9.990713,15.838379 l 2.392976,1.136419 0.205789,2.4345 c 0.334643,3.95879 0.243318,16.38989 -0.125466,17.07897 -0.321292,0.60034 -1.781504,0.81347 -2.788742,0.40704 z m -42.426861,-2.26807 c -0.138438,-0.22973 12.471063,-33.432399 13.005747,-34.246047 0.356816,-0.542986 5.147402,-0.537799 5.583514,0.006 0.502483,0.626601 13.147811,33.970887 12.985014,34.239997 -0.251881,0.41637 -4.481456,0.27588 -4.816723,-0.16 -0.169222,-0.22 -0.921056,-2.15404 -1.670742,-4.29787 -0.749687,-2.143831 -1.576643,-3.979831 -1.83768,-4.080001 -0.261037,-0.100176 -3.699517,-0.182131 -7.641063,-0.182131 -8.372588,0 -7.422249,-0.478966 -9.2064,4.64 -0.613424,1.76 -1.216108,3.452002 -1.339299,3.760002 -0.184809,0.46206 -0.634397,0.56 -2.570857,0.56 -1.290784,0 -2.411962,-0.108 -2.491511,-0.24 z M 71.510733,88.654998 c 0.175101,-0.283319 -5.284099,-15.495028 -5.715811,-15.92674 -0.107207,-0.107207 -0.284404,-0.105437 -0.393773,0.0039 -0.424477,0.424473 -5.878691,15.652903 -5.706205,15.931994 0.244099,0.394963 11.571453,0.386157 11.815789,-0.0092 z"
       id="path26"
       inkscape:connector-curvature="0" />
    <path
       style="fill:#353535;stroke-width:0.32000002"
       d="M 19.093333,146.66668 C 18.976,146.54934 18.88,119.11977 18.88,85.712063 V 24.970783 L 20.4,24.205787 C 23.078316,22.857826 61.718963,5.4400004 62.031037,5.4400004 c 0.16527,0 0.387897,0.2277772 0.494726,0.5061718 0.267258,0.6964606 0.202106,28.6497888 -0.06826,29.2843228 C 62.337878,35.511266 60.944,36.818457 59.36,38.135362 50.076586,45.853405 42.755219,56.601063 38.90704,68.160004 30.009274,94.88663 38.092013,123.58614 59.606355,141.65739 c 2.836224,2.38232 3.238407,2.96611 2.949523,4.28139 l -0.206729,0.94123 H 40.827907 c -11.836682,0 -21.61724,-0.096 -21.734574,-0.21333 z m 119.655807,-0.0595 c -0.2308,-0.37344 0.37164,-1.05943 1.89086,-2.15307 4.98106,-3.58571 10.63962,-9.19079 14.47277,-14.33598 8.74559,-11.73906 13.23831,-25.31406 13.25084,-40.038094 0.01,-11.159169 -2.0444,-20.238456 -6.74371,-29.810604 C 156.6138,50.072336 150.14662,42.284435 140.91573,35.337068 L 138.56,33.564095 V 19.182048 c 0,-16.4442521 -0.31528,-15.0579652 3.08018,-13.5437216 1.0339,0.4610794 11.30244,4.9236506 22.81897,9.9168246 11.51654,4.993174 21.05433,9.259927 21.1951,9.481674 0.2946,0.464064 0.36539,120.571185 0.0715,121.337015 -0.17466,0.45515 -2.54348,0.50617 -23.50111,0.50617 -12.81878,0 -23.38277,-0.12279 -23.47551,-0.27286 z m 3.42681,-37.10512 c -3.29192,-1.17287 -5.73875,-3.6524 -7.00836,-7.10202 -0.80414,-2.18491 -0.97922,-8.278385 -0.31262,-10.880369 1.42983,-5.581165 5.11426,-8.623824 10.77648,-8.899376 8.04846,-0.39168 12.76855,4.653001 12.76855,13.646624 0,6.418341 -2.25626,10.717161 -6.72,12.803571 -2.37723,1.11115 -7.00666,1.32136 -9.50405,0.43157 z m 7.28388,-3.75228 c 1.4976,-0.77443 3.12691,-2.91008 3.70511,-4.85651 0.71048,-2.391739 0.72222,-6.715794 0.0246,-9.061826 -0.58538,-1.968608 -2.30414,-4.200784 -3.86167,-5.015207 -1.31754,-0.688941 -4.52533,-0.695721 -5.83192,-0.01232 -2.96873,1.552752 -4.43796,4.84057 -4.39547,9.836126 0.0376,4.420127 1.20941,7.145437 3.8031,8.844877 1.68497,1.10404 4.69807,1.22577 6.55625,0.26487 z M 117.44,96.320006 V 83.200005 h 2.08 2.08 v 1.386666 c 0,0.762669 0.0946,1.481251 0.21018,1.596851 0.1156,0.1156 0.88983,-0.425542 1.7205,-1.202537 1.71705,-1.606103 3.93223,-2.42098 6.58123,-2.42098 2.59133,0 2.68809,0.08763 2.68809,2.434237 0,2.252791 0.0382,2.223328 -2.20875,1.705373 -0.99067,-0.228365 -1.94036,-0.216099 -3.2,0.04133 -1.47779,0.302006 -2.04369,0.626195 -3.23379,1.852567 -2.18315,2.24968 -2.30643,2.870096 -2.47329,12.446498 l -0.14637,8.4 h -2.0489 -2.0489 z m -67.626861,5.200004 c -0.138438,-0.22973 12.471063,-33.432399 13.005747,-34.246047 0.356816,-0.542986 5.147402,-0.537799 5.583514,0.006 0.502483,0.626601 13.147811,33.970887 12.985014,34.239997 -0.251881,0.41637 -4.481456,0.27588 -4.816723,-0.16 -0.169222,-0.22 -0.921056,-2.15404 -1.670742,-4.29787 -0.749687,-2.143831 -1.576643,-3.979831 -1.83768,-4.080001 -0.261037,-0.100176 -3.699517,-0.182131 -7.641063,-0.182131 -8.372588,0 -7.422249,-0.478966 -9.2064,4.64 -0.613424,1.76 -1.216108,3.452002 -1.339299,3.760002 -0.184809,0.46206 -0.634397,0.56 -2.570857,0.56 -1.290784,0 -2.411962,-0.108 -2.491511,-0.24 z M 71.510733,88.654998 c 0.175101,-0.283319 -5.284099,-15.495028 -5.715811,-15.92674 -0.107207,-0.107207 -0.284404,-0.105437 -0.393773,0.0039 -0.424477,0.424473 -5.878691,15.652903 -5.706205,15.931994 0.244099,0.394963 11.571453,0.386157 11.815789,-0.0092 z"
       id="path24"
       inkscape:connector-curvature="0" />
  </g>
</svg>
