<?xml version="1.0" encoding="UTF-8" standalone="no"?>
<!-- Created with Inkscape (http://www.inkscape.org/) -->

<svg
   xmlns:dc="http://purl.org/dc/elements/1.1/"
   xmlns:cc="http://creativecommons.org/ns#"
   xmlns:rdf="http://www.w3.org/1999/02/22-rdf-syntax-ns#"
   xmlns:svg="http://www.w3.org/2000/svg"
   xmlns="http://www.w3.org/2000/svg"
   xmlns:sodipodi="http://sodipodi.sourceforge.net/DTD/sodipodi-0.dtd"
   xmlns:inkscape="http://www.inkscape.org/namespaces/inkscape"
   id="svg2"
   version="1.1"
   inkscape:version="0.91 r13725"
   width="625"
   height="625"
   viewBox="0 0 625 624.99999"
   sodipodi:docname="logo-myne_se.svg">
  <metadata
     id="metadata8">
    <rdf:RDF>
      <cc:Work
         rdf:about="">
        <dc:format>image/svg+xml</dc:format>
        <dc:type
           rdf:resource="http://purl.org/dc/dcmitype/StillImage" />
        <dc:title></dc:title>
      </cc:Work>
    </rdf:RDF>
  </metadata>
  <defs
     id="defs6" />
  <sodipodi:namedview
     pagecolor="#ffffff"
     bordercolor="#666666"
     borderopacity="1"
     objecttolerance="10"
     gridtolerance="10"
     guidetolerance="10"
     inkscape:pageopacity="0"
     inkscape:pageshadow="2"
     inkscape:window-width="1817"
     inkscape:window-height="853"
     id="namedview4"
     showgrid="false"
     showguides="true"
     inkscape:zoom="1.1"
     inkscape:cx="162.89999"
     inkscape:cy="314.19486"
     inkscape:window-x="65"
     inkscape:window-y="24"
     inkscape:window-maximized="0"
     inkscape:current-layer="svg2" />
  <g
     id="g3338"
     transform="matrix(5.3700399,0,0,5.3700399,-103.72753,-158.01067)">
    <path
       style="fill:#fdd30f"
       d="m 24.899999,96.348151 0,-38.351845 0.825,-0.381855 c 10.504455,-4.862055 25.975466,-11.687771 26.190293,-11.555 0.169356,0.104667 0.284706,3.817112 0.284706,9.162986 l 0,8.987031 -4.141994,4.120262 c -4.176837,4.154922 -6.396324,7.07811 -8.415717,11.083956 -6.168483,12.236357 -6.235524,26.465404 -0.181578,38.539754 2.521659,5.02934 6.260976,9.85733 10.168901,13.12948 2.183061,1.82791 2.810283,2.68621 2.422047,3.31439 -0.121329,0.19631 -4.925054,0.30268 -13.669364,0.30268 l -13.482294,0 z M 100.5,134.42738 c 0,-0.14994 0.91125,-0.98065 2.025,-1.84602 8.2078,-6.37738 13.86311,-15.72225 15.87462,-26.23137 0.71361,-3.72821 0.70696,-11.334985 -0.0131,-14.989111 C 116.30011,80.77289 110.53,71.334152 102.31268,65.067372 L 100.2,63.456168 l 0,-8.928084 c 0,-7.701866 0.0613,-8.928086 0.44615,-8.928086 0.71945,0 28.71876,12.220634 28.99407,12.654812 0.28333,0.446823 0.3598,75.23545 0.0777,75.97065 -0.16258,0.42367 -1.73832,0.47453 -14.7,0.47453 -8.50638,0 -14.5179,-0.11288 -14.5179,-0.27261 z m -28.800002,-4.38865 c -10.844697,-1.71452 -20.607375,-9.30814 -24.966656,-19.41958 -1.664739,-3.8614 -2.355105,-6.94245 -2.546556,-11.365052 -0.202563,-4.679277 0.211548,-7.773141 1.600044,-11.954102 2.664135,-8.022093 8.062229,-14.369244 15.863168,-18.652128 l 2.4,-1.31765 0.15,-12.826236 c 0.128208,-10.962728 0.215379,-12.867536 0.6,-13.110515 0.2475,-0.156354 1.358139,-0.28635 2.468085,-0.288876 3.15201,-0.0072 2.951292,-1.122393 2.859825,15.889553 -0.06729,12.515702 -0.139239,14.524325 -0.52791,14.738192 -0.2475,0.136191 -1.527816,0.665682 -2.845149,1.176651 -7.962495,3.088503 -14.394045,10.718382 -16.269204,19.300487 -0.689655,3.156354 -0.614559,8.420576 0.166236,11.653296 1.953006,8.08603 7.406064,14.64664 15.162468,18.24205 3.977973,1.84395 5.976258,2.24266 11.135649,2.22185 3.999837,-0.0161 4.793315,-0.10785 7.138976,-0.82515 5.034732,-1.53962 8.627196,-3.78241 12.234591,-7.63813 C 101.11118,110.74621 103.5,104.73345 103.5,97.799995 103.5,86.410934 96.495153,76.418666 85.724997,72.444326 l -1.425,-0.525846 0,-15.049241 c 0,-11.304965 0.08957,-15.138809 0.36,-15.409241 0.443223,-0.443223 3.955761,-0.479712 4.759722,-0.04945 0.55983,0.299613 0.580278,0.763095 0.580278,13.153505 0,14.513027 -0.248619,13.116954 2.589102,14.538602 2.25192,1.128171 6.130464,4.144869 8.078041,6.283026 10.4058,11.424075 11.72607,27.765109 3.27739,40.564309 -1.67832,2.54255 -5.799542,6.73731 -8.339468,8.48828 -7.238928,4.99037 -15.508958,6.92787 -23.905064,5.60046 z m 0.6,-14.02843 -0.75,-0.38085 -0.02823,-5.98973 c -0.01824,-3.86852 -0.15426,-6.29728 -0.38409,-6.85817 -0.195717,-0.47764 -1.388784,-1.82764 -2.651256,-2.999998 -6.865968,-6.375876 -9.264048,-8.734758 -9.513978,-9.358473 -0.225744,-0.563355 -0.07467,-0.998262 0.809139,-2.32938 1.445562,-2.177171 2.817927,-3.714995 4.227693,-4.737401 0.974385,-0.706653 1.261452,-0.786423 1.8,-0.500175 0.352404,0.187308 2.854893,2.478804 5.561088,5.092214 3.475494,3.356349 5.124729,4.751658 5.616372,4.751658 0.490488,0 2.120841,-1.372626 5.520872,-4.648131 2.653665,-2.55647 5.072124,-4.780466 5.37435,-4.942214 0.424026,-0.226932 0.814224,-0.101889 1.708773,0.54759 2.00004,1.452114 4.901628,5.412287 4.917675,6.711794 0.0061,0.495996 -1.62522,2.269947 -6.005955,6.530961 l -6.014364,5.849995 0.0015,6.15 c 6e-4,3.3825 -0.111825,6.32852 -0.250158,6.5467 -0.399375,0.62989 -2.331083,0.93878 -5.889293,0.94172 -2.078409,0.002 -3.577635,-0.13824 -4.05,-0.37811 z"
       id="path3348"
       inkscape:connector-curvature="0"
       sodipodi:nodetypes="ccssscsssssscccsssscssscsccssssscsssssssssssssscsssssssssccsssssssssssscsccsccc" />
    <path
       style="fill:#fc8727"
       d="m 24.899999,96.348151 0,-38.351845 0.825,-0.381855 c 10.504455,-4.862055 25.975466,-11.687771 26.190293,-11.555 0.169356,0.104667 0.284706,3.817112 0.284706,9.162986 l 0,8.987031 -4.141994,4.120262 c -4.176837,4.154922 -6.396324,7.07811 -8.415717,11.083956 -6.168483,12.236357 -6.235524,26.465404 -0.181578,38.539754 2.521659,5.02934 6.260976,9.85733 10.168901,13.12948 2.183061,1.82791 2.810283,2.68621 2.422047,3.31439 -0.121329,0.19631 -4.925054,0.30268 -13.669364,0.30268 l -13.482294,0 z M 100.5,134.42738 c 0,-0.14994 0.91125,-0.98065 2.025,-1.84602 8.2078,-6.37738 13.86311,-15.72225 15.87462,-26.23137 0.71361,-3.72821 0.70696,-11.334985 -0.0131,-14.989111 C 116.30011,80.77289 110.53,71.334152 102.31268,65.067372 L 100.2,63.456168 l 0,-8.928084 c 0,-7.701866 0.0613,-8.928086 0.44615,-8.928086 0.71945,0 28.71876,12.220634 28.99407,12.654812 0.28333,0.446823 0.3598,75.23545 0.0777,75.97065 -0.16258,0.42367 -1.73832,0.47453 -14.7,0.47453 -8.50638,0 -14.5179,-0.11288 -14.5179,-0.27261 z m -28.800002,-4.38865 c -10.844697,-1.71452 -20.607375,-9.30814 -24.966656,-19.41958 -1.664739,-3.8614 -2.355105,-6.94245 -2.546556,-11.365052 -0.202563,-4.679277 0.211548,-7.773141 1.600044,-11.954102 2.664135,-8.022093 8.062229,-14.369244 15.863168,-18.652128 l 2.4,-1.31765 0.15,-12.826236 c 0.128208,-10.962728 0.215379,-12.867536 0.6,-13.110515 0.2475,-0.156354 1.358139,-0.28635 2.468085,-0.288876 3.15201,-0.0072 2.951292,-1.122393 2.859825,15.889553 -0.06729,12.515702 -0.139239,14.524325 -0.52791,14.738192 -0.2475,0.136191 -1.527816,0.665682 -2.845149,1.176651 -7.962495,3.088503 -14.394045,10.718382 -16.269204,19.300487 -0.689655,3.156354 -0.614559,8.420576 0.166236,11.653296 1.953006,8.08603 7.406064,14.64664 15.162468,18.24205 3.977973,1.84395 5.976258,2.24266 11.135649,2.22185 3.999837,-0.0161 4.793315,-0.10785 7.138976,-0.82515 5.034732,-1.53962 8.627196,-3.78241 12.234591,-7.63813 C 101.11118,110.74621 103.5,104.73345 103.5,97.799995 103.5,86.410934 96.495153,76.418666 85.724997,72.444326 l -1.425,-0.525846 0,-15.049241 c 0,-11.304965 0.08957,-15.138809 0.36,-15.409241 0.443223,-0.443223 3.955761,-0.479712 4.759722,-0.04945 0.55983,0.299613 0.580278,0.763095 0.580278,13.153505 0,14.513027 -0.248619,13.116954 2.589102,14.538602 2.25192,1.128171 6.130464,4.144869 8.078041,6.283026 10.4058,11.424075 11.72607,27.765109 3.27739,40.564309 -1.67832,2.54255 -5.799542,6.73731 -8.339468,8.48828 -7.238928,4.99037 -15.508958,6.92787 -23.905064,5.60046 z"
       id="path3346"
       inkscape:connector-curvature="0"
       sodipodi:nodetypes="ccssscsssssscccsssscssscsccssssscsssssssssssssscsssssssss" />
    <path
       style="fill:#fb7e22"
       d="m 24.899999,96.348151 0,-38.351845 0.825,-0.381855 c 10.504455,-4.862055 25.975466,-11.687771 26.190293,-11.555 0.169356,0.104667 0.284706,3.817112 0.284706,9.162986 l 0,8.987031 -4.141994,4.120262 c -4.176837,4.154922 -6.396324,7.07811 -8.415717,11.083956 -6.168483,12.236357 -6.235524,26.465404 -0.181578,38.539754 2.521659,5.02934 6.260976,9.85733 10.168901,13.12948 2.183061,1.82791 2.810283,2.68621 2.422047,3.31439 -0.121329,0.19631 -4.925054,0.30268 -13.669364,0.30268 l -13.482294,0 z M 100.5,134.42738 c 0,-0.14994 0.91125,-0.98065 2.025,-1.84602 8.2078,-6.37738 13.86311,-15.72225 15.87462,-26.23137 0.71361,-3.72821 0.70696,-11.334985 -0.0131,-14.989111 C 116.30011,80.77289 110.53,71.334152 102.31268,65.067372 L 100.2,63.456168 l 0,-8.928084 c 0,-7.701866 0.0613,-8.928086 0.44615,-8.928086 0.71945,0 28.71876,12.220634 28.99407,12.654812 0.28333,0.446823 0.3598,75.23545 0.0777,75.97065 -0.16258,0.42367 -1.73832,0.47453 -14.7,0.47453 -8.50638,0 -14.5179,-0.11288 -14.5179,-0.27261 z m -29.300879,-4.67179 c -6.27819,-1.13911 -11.999457,-4.06564 -16.694919,-8.53974 -3.077391,-2.93231 -4.978077,-5.49519 -6.797576,-9.16586 -4.263864,-8.60191 -4.585665,-18.116158 -0.911274,-26.942439 2.908673,-6.986949 8.526104,-13.007172 15.304646,-16.402053 1.0725,-0.537138 2.0175,-1.039247 2.1,-1.115798 0.0825,-0.07655 0.2175,-5.966802 0.3,-13.089444 l 0.15,-12.950258 2.20275,-0.0887 c 1.365732,-0.055 2.363199,0.04446 2.625,0.261735 0.352467,0.292521 0.42225,2.775288 0.42225,15.023117 0,13.706432 -0.03457,14.684357 -0.525,14.850002 -1.671282,0.564477 -5.449413,2.295003 -6.887412,3.154692 -2.202249,1.316583 -6.105297,4.993158 -7.723758,7.275588 -3.365958,4.746828 -4.96383,9.846197 -4.96383,15.841313 0,12.139915 8.295921,22.814215 20.266194,26.076355 3.462702,0.94365 9.763353,0.94048 13.306124,-0.007 10.239486,-2.73758 17.745164,-10.67208 19.897604,-21.03441 2.5406,-12.231064 -4.581473,-25.506831 -16.168091,-30.137796 -1.128507,-0.451044 -2.220582,-0.959265 -2.426832,-1.129377 -0.487674,-0.402228 -0.549276,-28.749634 -0.06445,-29.65555 0.26412,-0.493512 0.642765,-0.580278 2.532297,-0.580278 1.447947,0 2.306268,0.130605 2.464443,0.375 0.133488,0.20625 0.310206,6.163467 0.392706,13.238255 l 0.15,12.863259 2.85,1.722215 c 7.026557,4.246053 11.826177,10.080243 14.522327,17.652639 2.37371,6.666764 2.20083,15.399683 -0.44042,22.248693 -3.30087,8.55943 -10.830663,15.81383 -19.595553,18.87887 -5.032611,1.75988 -11.269595,2.28705 -16.28723,1.37666 z"
       id="path3344"
       inkscape:connector-curvature="0"
       sodipodi:nodetypes="ccssscsssssscccsssscssscscccsssssscsssssssscssssssscsssscc" />
    <path
       style="fill:#fe7e00"
       d="m 24.899999,96.348151 0,-38.351845 0.825,-0.381855 c 10.504455,-4.862055 25.975466,-11.687771 26.190293,-11.555 0.169356,0.104667 0.284706,3.817112 0.284706,9.162986 l 0,8.987031 -4.141994,4.120262 c -4.176837,4.154922 -6.396324,7.07811 -8.415717,11.083956 -6.168483,12.236357 -6.235524,26.465404 -0.181578,38.539754 2.521659,5.02934 6.260976,9.85733 10.168901,13.12948 2.183061,1.82791 2.810283,2.68621 2.422047,3.31439 -0.121329,0.19631 -4.925054,0.30268 -13.669364,0.30268 l -13.482294,0 0,-38.351839 z M 100.5,134.42738 c 0,-0.14994 0.91125,-0.98065 2.025,-1.84602 8.2078,-6.37738 13.86311,-15.72225 15.87462,-26.23137 0.71361,-3.72821 0.70696,-11.334985 -0.0131,-14.989111 C 116.30011,80.77289 110.53,71.334152 102.31268,65.067372 L 100.2,63.456168 l 0,-8.928084 c 0,-7.701866 0.0613,-8.928086 0.44615,-8.928086 0.71945,0 28.71876,12.220634 28.99407,12.654812 0.28333,0.446823 0.3598,75.23545 0.0777,75.97065 -0.16258,0.42367 -1.73832,0.47453 -14.7,0.47453 -8.50638,0 -14.5179,-0.11288 -14.5179,-0.27261 z m -28.324577,-4.53837 c -11.121462,-1.7537 -20.980194,-9.38104 -25.268687,-19.54946 -1.969176,-4.6691 -2.339781,-6.67903 -2.339781,-12.689555 0,-6.010524 0.370605,-8.020458 2.339781,-12.689558 2.855825,-6.771426 9.21242,-13.473048 15.575816,-16.421253 0.828624,-0.383904 1.619463,-0.876026 1.757424,-1.093598 0.137958,-0.217575 0.252903,-6.004839 0.255429,-12.860589 0.0034,-9.289745 0.0963,-12.556703 0.364593,-12.824999 0.513336,-0.513336 4.271892,-0.474036 4.706145,0.04921 0.24498,0.295185 0.31791,4.487808 0.261732,15.046418 l -0.07788,14.637209 -1.60965,0.547092 c -10.891641,3.701871 -18.333606,13.948914 -18.38157,25.310072 -0.0076,1.815 0.137019,4.130511 0.321513,5.145581 1.840404,10.12581 9.159705,18.15181 19.435155,21.31167 2.387817,0.73429 3.070038,0.80943 7.284552,0.80234 4.191363,-0.007 4.914845,-0.0884 7.335197,-0.82484 5.239656,-1.59425 9.952101,-4.64418 13.296702,-8.60572 2.142147,-2.53729 4.837376,-7.7062 5.620516,-10.77904 0.77751,-3.05079 0.9277,-8.679291 0.31259,-11.714994 -1.1556,-5.70311 -4.017153,-10.819442 -8.243112,-14.738333 -2.660679,-2.467353 -4.574427,-3.710367 -8.015649,-5.206326 l -2.356245,-1.024302 0,-15.083015 0,-15.083018 2.4,0 2.4,0 0.161019,13.199999 c 0.08856,7.26 0.18981,13.222023 0.225,13.248939 0.03519,0.02691 1.069794,0.59147 2.299125,1.25456 7.915342,4.26948 13.930222,12.065973 16.090072,20.855933 0.80635,3.281598 1.05985,8.452572 0.58609,11.954937 -1.14399,8.4571 -5.76895,16.38206 -12.583316,21.56174 -2.817429,2.14157 -8.004279,4.62423 -11.57799,5.54176 -3.372755,0.86594 -9.447128,1.2143 -12.574574,0.72114 z"
       id="path3342"
       inkscape:connector-curvature="0" />
    <path
       style="fill:#393939"
       d="m 24.899999,96.348151 0,-38.351845 0.825,-0.381855 c 10.504455,-4.862055 25.975466,-11.687771 26.190293,-11.555 0.169356,0.104667 0.284706,3.817112 0.284706,9.162986 l 0,8.987031 -4.141994,4.120262 c -4.176837,4.154922 -6.396324,7.07811 -8.415717,11.083956 -6.168483,12.236357 -6.235524,26.465404 -0.181578,38.539754 2.521659,5.02934 6.260976,9.85733 10.168901,13.12948 2.183061,1.82791 2.810283,2.68621 2.422047,3.31439 -0.121329,0.19631 -4.925054,0.30268 -13.669364,0.30268 l -13.482294,0 0,-38.351839 z M 100.5,134.42738 c 0,-0.14994 0.91125,-0.98065 2.025,-1.84602 8.2078,-6.37738 13.86311,-15.72225 15.87462,-26.23137 0.71361,-3.72821 0.70696,-11.334985 -0.0131,-14.989111 C 116.30011,80.77289 110.53,71.334152 102.31268,65.067372 L 100.2,63.456168 l 0,-8.928084 c 0,-7.701866 0.0613,-8.928086 0.44615,-8.928086 0.71945,0 28.71876,12.220634 28.99407,12.654812 0.28333,0.446823 0.3598,75.23545 0.0777,75.97065 -0.16258,0.42367 -1.73832,0.47453 -14.7,0.47453 -8.50638,0 -14.5179,-0.11288 -14.5179,-0.27261 z"
       id="path3340"
       inkscape:connector-curvature="0" />
  </g>
</svg>
