<?xml version="1.0" encoding="UTF-8" standalone="no"?>
<!-- Created with Inkscape (http://www.inkscape.org/) -->

<svg
   xmlns:dc="http://purl.org/dc/elements/1.1/"
   xmlns:cc="http://creativecommons.org/ns#"
   xmlns:rdf="http://www.w3.org/1999/02/22-rdf-syntax-ns#"
   xmlns:svg="http://www.w3.org/2000/svg"
   xmlns="http://www.w3.org/2000/svg"
   xmlns:sodipodi="http://sodipodi.sourceforge.net/DTD/sodipodi-0.dtd"
   xmlns:inkscape="http://www.inkscape.org/namespaces/inkscape"
   version="1.1"
   id="svg2"
   width="204.8"
   height="153.60001"
   viewBox="0 0 204.8 153.60001"
   sodipodi:docname="oxygene-logo.svg"
   inkscape:version="0.92.3 (2405546, 2018-03-11)">
  <metadata
     id="metadata8">
    <rdf:RDF>
      <cc:Work
         rdf:about="">
        <dc:format>image/svg+xml</dc:format>
        <dc:type
           rdf:resource="http://purl.org/dc/dcmitype/StillImage" />
        <dc:title></dc:title>
      </cc:Work>
    </rdf:RDF>
  </metadata>
  <defs
     id="defs6" />
  <sodipodi:namedview
     pagecolor="#ffffff"
     bordercolor="#666666"
     borderopacity="1"
     objecttolerance="10"
     gridtolerance="10"
     guidetolerance="10"
     inkscape:pageopacity="0"
     inkscape:pageshadow="2"
     inkscape:window-width="1511"
     inkscape:window-height="891"
     id="namedview4"
     showgrid="false"
     inkscape:zoom="1.5364583"
     inkscape:cx="225.08475"
     inkscape:cy="76.800003"
     inkscape:window-x="67"
     inkscape:window-y="27"
     inkscape:window-maximized="0"
     inkscape:current-layer="svg2" />
  <g
     id="g20"
     transform="translate(1.301697,1.952542)">
    <path
       style="fill:#fdc412;stroke-width:0.32000002"
       d="M 19.093333,146.66668 C 18.976,146.54934 18.88,119.11977 18.88,85.712063 V 24.970783 L 20.4,24.205787 C 23.078316,22.857826 61.718963,5.4400004 62.031037,5.4400004 c 0.16527,0 0.387897,0.2277772 0.494726,0.5061718 0.267258,0.6964606 0.202106,28.6497888 -0.06826,29.2843228 C 62.337878,35.511266 60.944,36.818457 59.36,38.135362 50.076586,45.853405 42.755219,56.601063 38.90704,68.160004 30.009274,94.88663 38.092013,123.58614 59.606355,141.65739 c 2.836224,2.38232 3.238407,2.96611 2.949523,4.28139 l -0.206729,0.94123 H 40.827907 c -11.836682,0 -21.61724,-0.096 -21.734574,-0.21333 z m 119.655807,-0.0595 c -0.2308,-0.37344 0.37164,-1.05943 1.89086,-2.15307 4.98106,-3.58571 10.63962,-9.19079 14.47277,-14.33598 8.74559,-11.73906 13.23831,-25.31406 13.25084,-40.038094 0.01,-11.159169 -2.0444,-20.238456 -6.74371,-29.810604 C 156.6138,50.072336 150.14662,42.284435 140.91573,35.337068 L 138.56,33.564095 V 19.182048 c 0,-16.4442521 -0.31528,-15.0579652 3.08018,-13.5437216 1.0339,0.4610794 11.30244,4.9236506 22.81897,9.9168246 11.51654,4.993174 21.05433,9.259927 21.1951,9.481674 0.2946,0.464064 0.36539,120.571185 0.0715,121.337015 -0.17466,0.45515 -2.54348,0.50617 -23.50111,0.50617 -12.81878,0 -23.38277,-0.12279 -23.47551,-0.27286 z M 57.44,120.33936 C 49.321984,119.02929 42.614058,113.39723 39.932813,105.64011 38.933386,102.74866 38.860093,95.229577 39.804538,92.480006 41.706176,86.94373 45.16777,82.747852 50.16,79.927893 l 1.68,-0.948982 v -7.788622 c 0,-4.286192 0.140339,-8.157738 0.31208,-8.609453 0.275478,-0.724566 0.493146,-0.820832 1.856,-0.820832 0.849155,0 1.71672,0.1728 1.92792,0.384 0.281782,0.281782 0.384,2.966858 0.384,10.086862 v 9.702861 l -0.88,0.35543 c -3.46279,1.398612 -5.164637,2.453418 -7.131034,4.419815 -5.296512,5.296509 -6.580086,12.869825 -3.339196,19.701828 1.083776,2.28467 3.417552,5.27905 4.097427,5.25726 0.556048,-0.0178 9.256707,-13.067842 9.05792,-13.585871 -0.09381,-0.244467 -1.762339,-2.825818 -3.70784,-5.736337 C 52.471773,89.435334 50.88,86.90685 50.88,86.727004 c 0,-0.183005 0.774541,-0.326998 1.758899,-0.326998 h 1.758899 l 2.961101,4.471136 c 1.628605,2.459123 3.105101,4.431619 3.281101,4.383319 0.176,-0.0483 1.657299,-2.060308 3.291776,-4.471137 l 2.971779,-4.383318 h 1.748221 c 0.975152,0 1.748224,0.144355 1.748224,0.326441 0,0.179546 -1.728,2.912647 -3.84,6.073559 -2.112,3.160912 -3.84,5.824701 -3.84,5.919527 0,0.09483 1.872,2.975037 4.16,6.400477 2.288,3.42543 4.16,6.37475 4.16,6.55403 0,0.18175 -0.77816,0.32597 -1.758902,0.32597 h -1.758906 l -3.411565,-5.12 c -1.876361,-2.816 -3.568854,-5.11421 -3.761094,-5.10714 -0.192243,0.007 -1.861725,2.27508 -3.709962,5.04 l -3.360429,5.02714 -1.439571,0.1002 c -2.106006,0.14659 -2.212659,0.52802 -0.458672,1.64037 3.476237,2.20456 8.212218,3.07943 12.357043,2.28268 2.20569,-0.42399 6.45738,-2.35234 7.075149,-3.20892 0.2128,-0.29507 0.628976,-0.62667 0.924832,-0.73689 0.870157,-0.32419 3.153549,-3.4201 4.311776,-5.84606 1.564355,-3.27662 2.01537,-6.741595 1.317075,-10.118625 C 77.075286,94.543091 76.401546,92.459622 75.869578,91.322832 74.290314,87.948019 70.281501,84.186885 66.88,82.888668 66.264,82.653564 65.58,82.239913 65.36,81.969445 64.845578,81.33701 64.78239,63.329796 65.291258,62.378967 c 0.47806,-0.893261 3.339424,-0.893261 3.817484,0 0.203344,0.379952 0.331258,3.749946 0.331258,8.72723 v 8.108269 l 1.180954,0.632771 c 5.230089,2.802346 9.619452,8.685505 10.857673,14.552769 0.732906,3.472842 0.444125,8.362424 -0.676918,11.461494 -2.420234,6.69063 -7.409955,11.57064 -13.952829,13.64604 -2.703658,0.8576 -6.932477,1.23146 -9.40888,0.83182 z m 53.76,-16.96429 c -3.2099,-0.80055 -5.68948,-2.85238 -7.07666,-5.85587 C 103.26142,95.652995 103.2,95.253917 103.2,91.520006 c 0,-3.733911 0.0614,-4.132989 0.92334,-5.999194 1.06541,-2.30681 3.05397,-4.303092 5.26045,-5.280871 2.30553,-1.021673 7.01844,-1.161411 9.86321,-0.292445 3.13991,0.959127 3.633,1.381319 3.633,3.110653 0,0.782023 -0.11843,1.421857 -0.26317,1.421857 -0.14475,0 -1.04475,-0.420993 -2,-0.93554 -4.89707,-2.637798 -11.04637,-1.580521 -13.01095,2.237031 -1.06126,2.062218 -1.49582,5.225386 -1.08256,7.879875 0.66752,4.287559 2.63201,6.433488 6.55259,7.157788 2.17469,0.40176 5.98871,-0.0895 6.77137,-0.872152 0.59696,-0.59696 0.6677,-5.224019 0.0887,-5.803002 -0.22337,-0.223373 -1.29422,-0.384 -2.56,-0.384 H 115.2 v -1.28 -1.28 h 4.16812 4.16813 l -0.0881,5.034173 -0.0881,5.034171 -1.37733,0.75936 c -0.75753,0.41765 -2.12553,0.95857 -3.04,1.20203 -1.75475,0.46719 -6.12337,0.54919 -7.74267,0.14533 z m 22.55793,0.0235 c -2.25787,-0.73621 -4.17656,-2.36522 -5.32211,-4.518554 -0.47215,-0.887539 -0.59582,-1.817382 -0.59582,-4.48 0,-3.112221 0.0687,-3.483994 0.93161,-5.041386 1.59556,-2.87969 3.93251,-4.199792 7.47867,-4.22457 4.59359,-0.03209 7.36337,2.700583 7.68195,7.579054 l 0.15105,2.313094 -6.36164,0.08691 -6.36164,0.0869 -0.0992,0.858752 c -0.12063,1.044253 0.60594,2.523415 1.76947,3.602301 1.62028,1.502409 5.34755,1.731499 8.51057,0.523099 1.62417,-0.620494 1.86585,-0.480801 1.75757,1.01585 -0.0918,1.26882 -0.18422,1.38992 -1.3784,1.80628 -1.4761,0.51464 -6.97612,0.77899 -8.16207,0.39228 z m 6.8439,-11.977392 c -0.10642,-3.398241 -5.13046,-4.815054 -7.87443,-2.220647 -0.93582,0.884813 -1.70509,2.733088 -1.36593,3.281856 0.13268,0.214679 1.83521,0.303079 4.74275,0.246256 l 4.53578,-0.08863 -0.0382,-1.218829 z m 7.87817,3.138838 v -8.8 h 1.44 c 1.18303,0 1.44,0.104691 1.44,0.586665 0,1.001335 0.3266,0.995491 1.78422,-0.03194 1.62043,-1.142182 4.38518,-1.531689 6.32587,-0.891203 1.41328,0.466422 2.94725,2.170979 3.39067,3.767725 0.18462,0.66481 0.33648,4.124746 0.33745,7.688746 l 0.002,6.480011 h -1.41106 -1.41106 l -0.11345,-6.320008 c -0.0958,-5.337232 -0.20313,-6.485642 -0.69019,-7.38521 -1.06635,-1.969462 -3.61843,-2.400666 -5.92096,-1.000409 -1.87285,1.13895 -2.10872,2.056749 -2.23724,8.705619 l -0.11599,6.000008 H 149.89003 148.48 Z m -62.4,8.247244 c -0.44,-0.0801 -1.071437,-0.38447 -1.403197,-0.67642 -0.564483,-0.49676 -0.590921,-0.92103 -0.411965,-6.610824 0.232954,-7.406557 0.180023,-7.564167 -3.700857,-11.020055 -4.764839,-4.24305 -9.844042,-9.234868 -9.840979,-9.671668 0.01294,-1.845981 5.60254,-8.268279 7.196233,-8.268279 0.675955,0 1.786695,0.895421 5.073104,4.089681 6.787162,6.596851 7.131642,6.874928 7.964451,6.429222 0.390714,-0.2091 2.989959,-2.589398 5.776103,-5.289546 3.794777,-3.677651 5.266817,-4.909357 5.867277,-4.909357 1.52472,0 6.81994,6.283313 6.85117,8.129614 0.008,0.459459 -2.03106,2.647488 -6.48,6.954186 l -6.49134,6.283795 0.100762,6.200762 c 0.05914,3.639127 -0.0319,6.549729 -0.2204,7.045479 -0.25801,0.67862 -0.642736,0.91369 -1.956512,1.19545 -1.586871,0.34032 -6.703648,0.41284 -8.32385,0.11796 z"
       id="path26"
       inkscape:connector-curvature="0" />
    <path
       style="fill:#fe7d00;stroke-width:0.32000002"
       d="M 19.093333,146.66668 C 18.976,146.54934 18.88,119.11977 18.88,85.712063 V 24.970783 L 20.4,24.205787 C 23.078316,22.857826 61.718963,5.4400004 62.031037,5.4400004 c 0.16527,0 0.387897,0.2277772 0.494726,0.5061718 0.267258,0.6964606 0.202106,28.6497888 -0.06826,29.2843228 C 62.337878,35.511266 60.944,36.818457 59.36,38.135362 50.076586,45.853405 42.755219,56.601063 38.90704,68.160004 30.009274,94.88663 38.092013,123.58614 59.606355,141.65739 c 2.836224,2.38232 3.238407,2.96611 2.949523,4.28139 l -0.206729,0.94123 H 40.827907 c -11.836682,0 -21.61724,-0.096 -21.734574,-0.21333 z m 119.655807,-0.0595 c -0.2308,-0.37344 0.37164,-1.05943 1.89086,-2.15307 4.98106,-3.58571 10.63962,-9.19079 14.47277,-14.33598 8.74559,-11.73906 13.23831,-25.31406 13.25084,-40.038094 0.01,-11.159169 -2.0444,-20.238456 -6.74371,-29.810604 C 156.6138,50.072336 150.14662,42.284435 140.91573,35.337068 L 138.56,33.564095 V 19.182048 c 0,-16.4442521 -0.31528,-15.0579652 3.08018,-13.5437216 1.0339,0.4610794 11.30244,4.9236506 22.81897,9.9168246 11.51654,4.993174 21.05433,9.259927 21.1951,9.481674 0.2946,0.464064 0.36539,120.571185 0.0715,121.337015 -0.17466,0.45515 -2.54348,0.50617 -23.50111,0.50617 -12.81878,0 -23.38277,-0.12279 -23.47551,-0.27286 z m -83.710849,-27.2078 c -5.566637,-1.50325 -10.886189,-5.84256 -13.39088,-10.92331 -3.056064,-6.19921 -3.058691,-12.962859 -0.0075,-19.196034 1.058007,-2.161338 1.864323,-3.246087 3.925763,-5.281386 1.54888,-1.529239 3.400212,-2.987472 4.594282,-3.618765 1.1,-0.581559 2.029978,-1.084935 2.066618,-1.118615 0.03664,-0.03368 0.14464,-3.877235 0.24,-8.541235 L 52.64,62.240004 l 1.50961,-0.09711 c 1.348982,-0.08677 1.528774,-0.01869 1.689721,0.64 0.09906,0.405411 0.139735,4.832528 0.09039,9.838042 l -0.08972,9.100929 -1.844886,0.71447 c -3.599687,1.394048 -7.568692,4.974231 -9.345802,8.430241 -1.713002,3.331337 -2.255939,8.753648 -1.262371,12.607244 1.492688,5.78943 6.685273,11.01042 12.441718,12.50979 2.165882,0.56414 6.673885,0.64146 8.802442,0.15099 4.296067,-0.98993 9.192467,-4.83506 11.32519,-8.89364 3.716352,-7.07223 2.494791,-15.068957 -3.170998,-20.758318 -1.719511,-1.726665 -2.930567,-2.613133 -4.751098,-3.477699 L 65.590861,81.84461 65.67543,72.042305 65.76,62.240004 h 1.44 1.44 l 0.173382,8.480001 c 0.09536,4.664 0.20336,8.511024 0.24,8.548944 0.03664,0.03792 1.281258,0.868848 2.765818,1.846509 3.232147,2.128538 5.495206,4.597629 7.189955,7.844548 1.971543,3.777226 2.416307,5.651575 2.391875,10.08 -0.01802,3.266024 -0.149769,4.232914 -0.88144,6.468644 -2.20231,6.72947 -8.144976,12.25459 -15.066822,14.00818 -2.59439,0.65726 -7.761366,0.59898 -10.414477,-0.11748 z M 49.6,111.6783 c 0,-0.19451 1.957085,-3.23175 4.349075,-6.74943 2.441751,-3.59084 4.273731,-6.592105 4.177277,-6.843465 -0.09449,-0.246237 -1.763574,-2.829034 -3.709075,-5.739553 C 52.471773,89.435334 50.88,86.90685 50.88,86.727004 c 0,-0.183005 0.774541,-0.326998 1.758899,-0.326998 h 1.758899 l 2.961101,4.471136 c 1.628605,2.459123 3.105101,4.431619 3.281101,4.383319 0.176,-0.0483 1.657299,-2.060308 3.291776,-4.471137 l 2.971779,-4.383318 h 1.748221 c 0.975152,0 1.748224,0.144355 1.748224,0.326441 0,0.179546 -1.728,2.912647 -3.84,6.073559 -2.112,3.160912 -3.84,5.824701 -3.84,5.919527 0,0.09483 1.872,2.975037 4.16,6.400477 2.288,3.42543 4.16,6.37475 4.16,6.55403 0,0.18175 -0.77816,0.32597 -1.758902,0.32597 h -1.758906 l -3.411565,-5.12 c -1.876361,-2.816 -3.568854,-5.11421 -3.761094,-5.10714 -0.192243,0.007 -1.861943,2.27508 -3.710445,5.04 l -3.360915,5.02714 -1.839085,0.096 C 50.251805,111.99793 49.6,111.90661 49.6,111.6783 Z m 61.6,-8.30323 c -3.2099,-0.80055 -5.68948,-2.85238 -7.07666,-5.85587 C 103.26142,95.652995 103.2,95.253917 103.2,91.520006 c 0,-3.733911 0.0614,-4.132989 0.92334,-5.999194 1.06541,-2.30681 3.05397,-4.303092 5.26045,-5.280871 2.30553,-1.021673 7.01844,-1.161411 9.86321,-0.292445 3.13991,0.959127 3.633,1.381319 3.633,3.110653 0,0.782023 -0.11843,1.421857 -0.26317,1.421857 -0.14475,0 -1.04475,-0.420993 -2,-0.93554 -4.89707,-2.637798 -11.04637,-1.580521 -13.01095,2.237031 -1.06126,2.062218 -1.49582,5.225386 -1.08256,7.879875 0.66752,4.287559 2.63201,6.433488 6.55259,7.157788 2.17469,0.40176 5.98871,-0.0895 6.77137,-0.872152 0.59696,-0.59696 0.6677,-5.224019 0.0887,-5.803002 -0.22337,-0.223373 -1.29422,-0.384 -2.56,-0.384 H 115.2 v -1.28 -1.28 h 4.16812 4.16813 l -0.0881,5.034173 -0.0881,5.034171 -1.37733,0.75936 c -0.75753,0.41765 -2.12553,0.95857 -3.04,1.20203 -1.75475,0.46719 -6.12337,0.54919 -7.74267,0.14533 z m 22.55793,0.0235 c -2.25787,-0.73621 -4.17656,-2.36522 -5.32211,-4.518554 -0.47215,-0.887539 -0.59582,-1.817382 -0.59582,-4.48 0,-3.112221 0.0687,-3.483994 0.93161,-5.041386 1.59556,-2.87969 3.93251,-4.199792 7.47867,-4.22457 4.59359,-0.03209 7.36337,2.700583 7.68195,7.579054 l 0.15105,2.313094 -6.36164,0.08691 -6.36164,0.0869 -0.0992,0.858752 c -0.12063,1.044253 0.60594,2.523415 1.76947,3.602301 1.62028,1.502409 5.34755,1.731499 8.51057,0.523099 1.62417,-0.620494 1.86585,-0.480801 1.75757,1.01585 -0.0918,1.26882 -0.18422,1.38992 -1.3784,1.80628 -1.4761,0.51464 -6.97612,0.77899 -8.16207,0.39228 z m 6.8439,-11.977392 c -0.10642,-3.398241 -5.13046,-4.815054 -7.87443,-2.220647 -0.93582,0.884813 -1.70509,2.733088 -1.36593,3.281856 0.13268,0.214679 1.83521,0.303079 4.74275,0.246256 l 4.53578,-0.08863 -0.0382,-1.218829 z m 7.87817,3.138838 v -8.8 h 1.44 c 1.18303,0 1.44,0.104691 1.44,0.586665 0,1.001335 0.3266,0.995491 1.78422,-0.03194 1.62043,-1.142182 4.38518,-1.531689 6.32587,-0.891203 1.41328,0.466422 2.94725,2.170979 3.39067,3.767725 0.18462,0.66481 0.33648,4.124746 0.33745,7.688746 l 0.002,6.480011 h -1.41106 -1.41106 l -0.11345,-6.320008 c -0.0958,-5.337232 -0.20313,-6.485642 -0.69019,-7.38521 -1.06635,-1.969462 -3.61843,-2.400666 -5.92096,-1.000409 -1.87285,1.13895 -2.10872,2.056749 -2.23724,8.705619 l -0.11599,6.000008 H 149.89003 148.48 Z"
       id="path24"
       inkscape:connector-curvature="0" />
    <path
       style="fill:#363636;stroke-width:0.32000002"
       d="M 19.093333,146.66668 C 18.976,146.54934 18.88,119.11977 18.88,85.712063 V 24.970783 L 20.4,24.205787 C 23.078316,22.857826 61.718963,5.4400004 62.031037,5.4400004 c 0.16527,0 0.387897,0.2277772 0.494726,0.5061718 0.267258,0.6964606 0.202106,28.6497888 -0.06826,29.2843228 C 62.337878,35.511266 60.944,36.818457 59.36,38.135362 50.076586,45.853405 42.755219,56.601063 38.90704,68.160004 30.009274,94.88663 38.092013,123.58614 59.606355,141.65739 c 2.836224,2.38232 3.238407,2.96611 2.949523,4.28139 l -0.206729,0.94123 H 40.827907 c -11.836682,0 -21.61724,-0.096 -21.734574,-0.21333 z m 119.655807,-0.0595 c -0.2308,-0.37344 0.37164,-1.05943 1.89086,-2.15307 4.98106,-3.58571 10.63962,-9.19079 14.47277,-14.33598 8.74559,-11.73906 13.23831,-25.31406 13.25084,-40.038094 0.01,-11.159169 -2.0444,-20.238456 -6.74371,-29.810604 C 156.6138,50.072336 150.14662,42.284435 140.91573,35.337068 L 138.56,33.564095 V 19.182048 c 0,-16.4442521 -0.31528,-15.0579652 3.08018,-13.5437216 1.0339,0.4610794 11.30244,4.9236506 22.81897,9.9168246 11.51654,4.993174 21.05433,9.259927 21.1951,9.481674 0.2946,0.464064 0.36539,120.571185 0.0715,121.337015 -0.17466,0.45515 -2.54348,0.50617 -23.50111,0.50617 -12.81878,0 -23.38277,-0.12279 -23.47551,-0.27286 z M 49.6,111.6783 c 0,-0.19451 1.957085,-3.23175 4.349075,-6.74943 2.441751,-3.59084 4.273731,-6.592105 4.177277,-6.843465 -0.09449,-0.246237 -1.763574,-2.829034 -3.709075,-5.739553 C 52.471773,89.435334 50.88,86.90685 50.88,86.727004 c 0,-0.183005 0.774541,-0.326998 1.758899,-0.326998 h 1.758899 l 2.961101,4.471136 c 1.628605,2.459123 3.105101,4.431619 3.281101,4.383319 0.176,-0.0483 1.657299,-2.060308 3.291776,-4.471137 l 2.971779,-4.383318 h 1.748221 c 0.975152,0 1.748224,0.144355 1.748224,0.326441 0,0.179546 -1.728,2.912647 -3.84,6.073559 -2.112,3.160912 -3.84,5.824701 -3.84,5.919527 0,0.09483 1.872,2.975037 4.16,6.400477 2.288,3.42543 4.16,6.37475 4.16,6.55403 0,0.18175 -0.77816,0.32597 -1.758902,0.32597 h -1.758906 l -3.411565,-5.12 c -1.876361,-2.816 -3.568854,-5.11421 -3.761094,-5.10714 -0.192243,0.007 -1.861943,2.27508 -3.710445,5.04 l -3.360915,5.02714 -1.839085,0.096 C 50.251805,111.99793 49.6,111.90661 49.6,111.6783 Z m 61.6,-8.30323 c -3.2099,-0.80055 -5.68948,-2.85238 -7.07666,-5.85587 C 103.26142,95.652995 103.2,95.253917 103.2,91.520006 c 0,-3.733911 0.0614,-4.132989 0.92334,-5.999194 1.06541,-2.30681 3.05397,-4.303092 5.26045,-5.280871 2.30553,-1.021673 7.01844,-1.161411 9.86321,-0.292445 3.13991,0.959127 3.633,1.381319 3.633,3.110653 0,0.782023 -0.11843,1.421857 -0.26317,1.421857 -0.14475,0 -1.04475,-0.420993 -2,-0.93554 -4.89707,-2.637798 -11.04637,-1.580521 -13.01095,2.237031 -1.06126,2.062218 -1.49582,5.225386 -1.08256,7.879875 0.66752,4.287559 2.63201,6.433488 6.55259,7.157788 2.17469,0.40176 5.98871,-0.0895 6.77137,-0.872152 0.59696,-0.59696 0.6677,-5.224019 0.0887,-5.803002 -0.22337,-0.223373 -1.29422,-0.384 -2.56,-0.384 H 115.2 v -1.28 -1.28 h 4.16812 4.16813 l -0.0881,5.034173 -0.0881,5.034171 -1.37733,0.75936 c -0.75753,0.41765 -2.12553,0.95857 -3.04,1.20203 -1.75475,0.46719 -6.12337,0.54919 -7.74267,0.14533 z m 22.55793,0.0235 c -2.25787,-0.73621 -4.17656,-2.36522 -5.32211,-4.518554 -0.47215,-0.887539 -0.59582,-1.817382 -0.59582,-4.48 0,-3.112221 0.0687,-3.483994 0.93161,-5.041386 1.59556,-2.87969 3.93251,-4.199792 7.47867,-4.22457 4.59359,-0.03209 7.36337,2.700583 7.68195,7.579054 l 0.15105,2.313094 -6.36164,0.08691 -6.36164,0.0869 -0.0992,0.858752 c -0.12063,1.044253 0.60594,2.523415 1.76947,3.602301 1.62028,1.502409 5.34755,1.731499 8.51057,0.523099 1.62417,-0.620494 1.86585,-0.480801 1.75757,1.01585 -0.0918,1.26882 -0.18422,1.38992 -1.3784,1.80628 -1.4761,0.51464 -6.97612,0.77899 -8.16207,0.39228 z m 6.8439,-11.977392 c -0.10642,-3.398241 -5.13046,-4.815054 -7.87443,-2.220647 -0.93582,0.884813 -1.70509,2.733088 -1.36593,3.281856 0.13268,0.214679 1.83521,0.303079 4.74275,0.246256 l 4.53578,-0.08863 -0.0382,-1.218829 z m 7.87817,3.138838 v -8.8 h 1.44 c 1.18303,0 1.44,0.104691 1.44,0.586665 0,1.001335 0.3266,0.995491 1.78422,-0.03194 1.62043,-1.142182 4.38518,-1.531689 6.32587,-0.891203 1.41328,0.466422 2.94725,2.170979 3.39067,3.767725 0.18462,0.66481 0.33648,4.124746 0.33745,7.688746 l 0.002,6.480011 h -1.41106 -1.41106 l -0.11345,-6.320008 c -0.0958,-5.337232 -0.20313,-6.485642 -0.69019,-7.38521 -1.06635,-1.969462 -3.61843,-2.400666 -5.92096,-1.000409 -1.87285,1.13895 -2.10872,2.056749 -2.23724,8.705619 l -0.11599,6.000008 H 149.89003 148.48 Z"
       id="path22"
       inkscape:connector-curvature="0" />
  </g>
</svg>
