<?xml version="1.0" encoding="UTF-8" standalone="no"?>
<!-- Created with Inkscape (http://www.inkscape.org/) -->

<svg
   xmlns:dc="http://purl.org/dc/elements/1.1/"
   xmlns:cc="http://creativecommons.org/ns#"
   xmlns:rdf="http://www.w3.org/1999/02/22-rdf-syntax-ns#"
   xmlns:svg="http://www.w3.org/2000/svg"
   xmlns="http://www.w3.org/2000/svg"
   xmlns:sodipodi="http://sodipodi.sourceforge.net/DTD/sodipodi-0.dtd"
   xmlns:inkscape="http://www.inkscape.org/namespaces/inkscape"
   id="svg2"
   version="1.1"
   inkscape:version="0.91 r13725"
   width="625"
   height="625"
   viewBox="0 0 625 624.99999"
   sodipodi:docname="picto-house.svg">
  <metadata
     id="metadata8">
    <rdf:RDF>
      <cc:Work
         rdf:about="">
        <dc:format>image/svg+xml</dc:format>
        <dc:type
           rdf:resource="http://purl.org/dc/dcmitype/StillImage" />
        <dc:title></dc:title>
      </cc:Work>
    </rdf:RDF>
  </metadata>
  <defs
     id="defs6" />
  <sodipodi:namedview
     pagecolor="#ffffff"
     bordercolor="#666666"
     borderopacity="1"
     objecttolerance="10"
     gridtolerance="10"
     guidetolerance="10"
     inkscape:pageopacity="0"
     inkscape:pageshadow="2"
     inkscape:window-width="1817"
     inkscape:window-height="853"
     id="namedview4"
     showgrid="false"
     showguides="true"
     inkscape:zoom="1.1"
     inkscape:cx="162.89999"
     inkscape:cy="314.19486"
     inkscape:window-x="75"
     inkscape:window-y="24"
     inkscape:window-maximized="0"
     inkscape:current-layer="svg2" />
  <g
     id="g3338"
     transform="matrix(5.3872059,0,0,5.3872059,-102.33678,-160.32293)">
    <path
       style="fill:#fdd30f"
       d="m 24.899999,96.348151 0,-38.351845 0.825,-0.381855 c 10.504455,-4.862055 25.975466,-11.687771 26.190293,-11.555 0.169356,0.104667 0.284706,3.817112 0.284706,9.162986 l 0,8.987031 -4.141994,4.120262 c -4.176837,4.154922 -6.396324,7.07811 -8.415717,11.083956 -6.168483,12.236357 -6.235524,26.465404 -0.181578,38.539754 2.521659,5.02934 6.260976,9.85733 10.168901,13.12948 2.183061,1.82791 2.810283,2.68621 2.422047,3.31439 -0.121329,0.19631 -4.925054,0.30268 -13.669364,0.30268 l -13.482294,0 z M 100.5,134.42738 c 0,-0.14994 0.91125,-0.98065 2.025,-1.84602 8.2078,-6.37738 13.86311,-15.72225 15.87462,-26.23137 0.71361,-3.72821 0.70696,-11.334985 -0.0131,-14.989111 C 116.30011,80.77289 110.53,71.334152 102.31268,65.067372 L 100.2,63.456168 l 0,-8.928084 c 0,-7.701866 0.0613,-8.928086 0.44615,-8.928086 0.71945,0 28.71876,12.220634 28.99407,12.654812 0.28333,0.446823 0.3598,75.23545 0.0777,75.97065 -0.16258,0.42367 -1.73832,0.47453 -14.7,0.47453 -8.50638,0 -14.5179,-0.11288 -14.5179,-0.27261 z"
       id="path3348"
       inkscape:connector-curvature="0"
       sodipodi:nodetypes="ccssscsssssscccsssscssscscc" />
    <path
       style="fill:#fc8727"
       d="m 24.899999,96.348151 0,-38.351845 0.825,-0.381855 c 10.504455,-4.862055 25.975466,-11.687771 26.190293,-11.555 0.169356,0.104667 0.284706,3.817112 0.284706,9.162986 l 0,8.987031 -4.141994,4.120262 c -4.176837,4.154922 -6.396324,7.07811 -8.415717,11.083956 -6.168483,12.236357 -6.235524,26.465404 -0.181578,38.539754 2.521659,5.02934 6.260976,9.85733 10.168901,13.12948 2.183061,1.82791 2.810283,2.68621 2.422047,3.31439 -0.121329,0.19631 -4.925054,0.30268 -13.669364,0.30268 l -13.482294,0 z M 100.5,134.42738 c 0,-0.14994 0.91125,-0.98065 2.025,-1.84602 8.2078,-6.37738 13.86311,-15.72225 15.87462,-26.23137 0.71361,-3.72821 0.70696,-11.334985 -0.0131,-14.989111 C 116.30011,80.77289 110.53,71.334152 102.31268,65.067372 L 100.2,63.456168 l 0,-8.928084 c 0,-7.701866 0.0613,-8.928086 0.44615,-8.928086 0.71945,0 28.71876,12.220634 28.99407,12.654812 0.28333,0.446823 0.3598,75.23545 0.0777,75.97065 -0.16258,0.42367 -1.73832,0.47453 -14.7,0.47453 -8.50638,0 -14.5179,-0.11288 -14.5179,-0.27261 z"
       id="path3346"
       inkscape:connector-curvature="0"
       sodipodi:nodetypes="ccssscsssssscccsssscssscscc" />
    <path
       style="fill:#fb7e22"
       d="m 24.899999,96.348151 0,-38.351845 0.825,-0.381855 c 10.504455,-4.862055 25.975466,-11.687771 26.190293,-11.555 0.169356,0.104667 0.284706,3.817112 0.284706,9.162986 l 0,8.987031 -4.141994,4.120262 c -4.176837,4.154922 -6.396324,7.07811 -8.415717,11.083956 -6.168483,12.236357 -6.235524,26.465404 -0.181578,38.539754 2.521659,5.02934 6.260976,9.85733 10.168901,13.12948 2.183061,1.82791 2.810283,2.68621 2.422047,3.31439 -0.121329,0.19631 -4.925054,0.30268 -13.669364,0.30268 l -13.482294,0 z M 100.5,134.42738 c 0,-0.14994 0.91125,-0.98065 2.025,-1.84602 8.2078,-6.37738 13.86311,-15.72225 15.87462,-26.23137 0.71361,-3.72821 0.70696,-11.334985 -0.0131,-14.989111 C 116.30011,80.77289 110.53,71.334152 102.31268,65.067372 L 100.2,63.456168 l 0,-8.928084 c 0,-7.701866 0.0613,-8.928086 0.44615,-8.928086 0.71945,0 28.71876,12.220634 28.99407,12.654812 0.28333,0.446823 0.3598,75.23545 0.0777,75.97065 -0.16258,0.42367 -1.73832,0.47453 -14.7,0.47453 -8.50638,0 -14.5179,-0.11288 -14.5179,-0.27261 z"
       id="path3344"
       inkscape:connector-curvature="0"
       sodipodi:nodetypes="ccssscsssssscccsssscssscscc" />
    <path
       style="fill:#fe7e00"
       d="m 24.899999,96.348151 0,-38.351845 0.825,-0.381855 c 10.504455,-4.862055 25.975466,-11.687771 26.190293,-11.555 0.169356,0.104667 0.284706,3.817112 0.284706,9.162986 l 0,8.987031 -4.141994,4.120262 c -4.176837,4.154922 -6.396324,7.07811 -8.415717,11.083956 -6.168483,12.236357 -6.235524,26.465404 -0.181578,38.539754 2.521659,5.02934 6.260976,9.85733 10.168901,13.12948 2.183061,1.82791 2.810283,2.68621 2.422047,3.31439 -0.121329,0.19631 -4.925054,0.30268 -13.669364,0.30268 l -13.482294,0 z M 100.5,134.42738 c 0,-0.14994 0.91125,-0.98065 2.025,-1.84602 8.2078,-6.37738 13.86311,-15.72225 15.87462,-26.23137 0.71361,-3.72821 0.70696,-11.334985 -0.0131,-14.989111 C 116.30011,80.77289 110.53,71.334152 102.31268,65.067372 L 100.2,63.456168 l 0,-8.928084 c 0,-7.701866 0.0613,-8.928086 0.44615,-8.928086 0.71945,0 28.71876,12.220634 28.99407,12.654812 0.28333,0.446823 0.3598,75.23545 0.0777,75.97065 -0.16258,0.42367 -1.73832,0.47453 -14.7,0.47453 -8.50638,0 -14.5179,-0.11288 -14.5179,-0.27261 z"
       id="path3342"
       inkscape:connector-curvature="0"
       sodipodi:nodetypes="ccssscsssssscccsssscssscscc" />
    <path
       style="fill:#393939"
       d="m 24.899999,96.348151 0,-38.351845 0.825,-0.381855 c 10.504455,-4.862055 25.975466,-11.687771 26.190293,-11.555 0.169356,0.104667 0.284706,3.817112 0.284706,9.162986 l 0,8.987031 -4.141994,4.120262 c -4.176837,4.154922 -6.396324,7.07811 -8.415717,11.083956 -6.168483,12.236357 -6.235524,26.465404 -0.181578,38.539754 2.521659,5.02934 6.260976,9.85733 10.168901,13.12948 2.183061,1.82791 2.810283,2.68621 2.422047,3.31439 -0.121329,0.19631 -4.925054,0.30268 -13.669364,0.30268 l -13.482294,0 0,-38.351839 z M 100.5,134.42738 c 0,-0.14994 0.91125,-0.98065 2.025,-1.84602 8.2078,-6.37738 13.86311,-15.72225 15.87462,-26.23137 0.71361,-3.72821 0.70696,-11.334985 -0.0131,-14.989111 C 116.30011,80.77289 110.53,71.334152 102.31268,65.067372 L 100.2,63.456168 l 0,-8.928084 c 0,-7.701866 0.0613,-8.928086 0.44615,-8.928086 0.71945,0 28.71876,12.220634 28.99407,12.654812 0.28333,0.446823 0.3598,75.23545 0.0777,75.97065 -0.16258,0.42367 -1.73832,0.47453 -14.7,0.47453 -8.50638,0 -14.5179,-0.11288 -14.5179,-0.27261 z"
       id="path3340"
       inkscape:connector-curvature="0" />
  </g>
</svg>
